<?xml version="1.0" encoding="UTF-8"?>
<!DOCTYPE svg PUBLIC "-//W3C//DTD SVG 1.1//EN" "http://www.w3.org/Graphics/SVG/1.1/DTD/svg11.dtd">
<svg xmlns="http://www.w3.org/2000/svg" version="1.1" width="561px" height="349px" style="shape-rendering:geometricPrecision; text-rendering:geometricPrecision; image-rendering:optimizeQuality; fill-rule:evenodd; clip-rule:evenodd" xmlns:xlink="http://www.w3.org/1999/xlink">
<g><path style="opacity:1" fill="#fdfefe" d="M -0.5,-0.5 C 186.5,-0.5 373.5,-0.5 560.5,-0.5C 560.5,115.833 560.5,232.167 560.5,348.5C 373.5,348.5 186.5,348.5 -0.5,348.5C -0.5,232.167 -0.5,115.833 -0.5,-0.5 Z"/></g>
<g><path style="opacity:1" fill="#043499" d="M 98.5,217.5 C 96.8405,205.701 95.8405,193.701 95.5,181.5C 120.764,161.186 146.097,140.853 171.5,120.5C 172.499,105.515 172.833,90.5148 172.5,75.5C 179.5,75.5 186.5,75.5 193.5,75.5C 193.334,84.5062 193.5,93.5062 194,102.5C 230.057,73.4384 266.39,44.7718 303,16.5C 344.561,67.3638 385.228,118.697 425,170.5C 389.26,139.715 353.426,109.048 317.5,78.5C 244.954,112.607 172.287,146.44 99.5,180C 98.5112,192.42 98.1779,204.92 98.5,217.5 Z"/></g>
<g><path style="opacity:1" fill="#173b9d" d="M 481.5,107.5 C 482.721,106.535 484.054,106.702 485.5,108C 537.74,145.34 554.573,194.84 536,256.5C 518.584,297.578 488.084,323.078 444.5,333C 411.36,339.608 380.36,334.274 351.5,317C 350.304,316.346 350.304,315.846 351.5,315.5C 388.317,334.646 425.984,336.479 464.5,321C 511.375,298.085 535.708,260.418 537.5,208C 535.544,164.897 516.877,131.397 481.5,107.5 Z"/></g>
<g><path style="opacity:1" fill="#173b9d" d="M 466.5,117.5 C 468.635,117.147 469.968,117.98 470.5,120C 460.966,145.604 451.632,171.27 442.5,197C 445.241,199.741 448.075,202.575 451,205.5C 452.128,207.345 452.628,209.345 452.5,211.5C 441.028,209.798 429.694,207.465 418.5,204.5C 423.589,199.13 429.923,196.463 437.5,196.5C 446.978,170.061 456.645,143.728 466.5,117.5 Z"/></g>
<g><path style="opacity:1" fill="#003299" d="M 252.5,123.5 C 263.833,123.5 275.167,123.5 286.5,123.5C 286.5,130.833 286.5,138.167 286.5,145.5C 275.167,145.5 263.833,145.5 252.5,145.5C 252.5,138.167 252.5,130.833 252.5,123.5 Z"/></g>
<g><path style="opacity:1" fill="#003299" d="M 297.5,124.5 C 308.833,124.5 320.167,124.5 331.5,124.5C 331.5,131.833 331.5,139.167 331.5,146.5C 320.167,146.5 308.833,146.5 297.5,146.5C 297.5,139.167 297.5,131.833 297.5,124.5 Z"/></g>
<g><path style="opacity:1" fill="#7d73ff" d="M 420.5,134.5 C 421.926,135.802 423.259,137.302 424.5,139C 421.833,141 419.167,141 416.5,139C 417.793,138.51 419.127,138.343 420.5,138.5C 420.5,137.167 420.5,135.833 420.5,134.5 Z"/></g>
<g><path style="opacity:1" fill="#003299" d="M 252.5,156.5 C 263.833,156.5 275.167,156.5 286.5,156.5C 286.5,163.833 286.5,171.167 286.5,178.5C 275.167,178.5 263.833,178.5 252.5,178.5C 252.5,171.167 252.5,163.833 252.5,156.5 Z"/></g>
<g><path style="opacity:1" fill="#003299" d="M 297.5,157.5 C 308.833,157.5 320.167,157.5 331.5,157.5C 331.5,164.833 331.5,172.167 331.5,179.5C 320.167,179.5 308.833,179.5 297.5,179.5C 297.5,172.167 297.5,164.833 297.5,157.5 Z"/></g>
<g><path style="opacity:1" fill="#837aff" d="M 228.5,177.5 C 230.765,178.94 230.932,180.607 229,182.5C 228.5,181.333 227.667,180.5 226.5,180C 227.756,179.583 228.423,178.75 228.5,177.5 Z"/></g>
<g><path style="opacity:1" fill="#8177ff" d="M 118.5,186.5 C 119.473,186.987 120.473,187.487 121.5,188C 120.333,188.5 119.5,189.333 119,190.5C 118.5,189.333 117.667,188.5 116.5,188C 117.416,187.722 118.082,187.222 118.5,186.5 Z"/></g>
<g><path style="opacity:1" fill="#aba9ff" d="M 378.5,201.5 C 377.833,200.833 377.167,200.167 376.5,199.5C 376.343,198.127 376.51,196.793 377,195.5C 378.128,197.345 378.628,199.345 378.5,201.5 Z"/></g>
<g><path style="opacity:1" fill="#2f7c4f" d="M 521.5,201.5 C 522.512,204.503 524.512,206.67 527.5,208C 523.694,208.425 521.86,210.592 522,214.5C 521.187,212.564 520.687,210.564 520.5,208.5C 514.034,208.29 514.034,207.623 520.5,206.5C 520.629,204.784 520.962,203.117 521.5,201.5 Z"/></g>
<g><path style="opacity:1" fill="#4035ff" d="M 376.5,199.5 C 377.167,200.167 377.833,200.833 378.5,201.5C 378.5,203.167 378.5,204.833 378.5,206.5C 380.527,206.338 382.527,206.505 384.5,207C 381.077,206.855 379.077,208.355 378.5,211.5C 377.833,212.167 377.167,212.833 376.5,213.5C 376.5,211.833 376.5,210.167 376.5,208.5C 367.365,207.37 367.365,206.703 376.5,206.5C 376.5,204.167 376.5,201.833 376.5,199.5 Z"/></g>
<g><path style="opacity:1" fill="#14399c" d="M 42.5,209.5 C 53.3206,208.505 64.3206,208.172 75.5,208.5C 75.8226,212.226 75.4892,215.893 74.5,219.5C 71.5807,211.538 65.914,208.538 57.5,210.5C 57.5,215.5 57.5,220.5 57.5,225.5C 62.4849,225.86 65.4849,223.526 66.5,218.5C 67.8333,224.167 67.8333,229.833 66.5,235.5C 65.5726,233.887 64.7393,232.221 64,230.5C 63.1841,229.177 62.0174,228.511 60.5,228.5C 59.4324,227.566 58.099,227.232 56.5,227.5C 56.1778,233.358 56.5111,239.025 57.5,244.5C 59.7812,244.077 61.4479,244.744 62.5,246.5C 54.7427,246.943 49.7427,246.61 47.5,245.5C 47.5,233.5 47.5,221.5 47.5,209.5C 45.8333,209.5 44.1667,209.5 42.5,209.5 Z"/></g>
<g><path style="opacity:1" fill="#0b369a" d="M 149.5,208.5 C 153.167,208.5 156.833,208.5 160.5,208.5C 159.874,215.584 160.541,222.25 162.5,228.5C 161.551,233.74 161.218,239.073 161.5,244.5C 162.675,244.281 163.675,244.614 164.5,245.5C 159.348,246.814 154.348,246.814 149.5,245.5C 150.833,245.5 152.167,245.5 153.5,245.5C 153.5,233.5 153.5,221.5 153.5,209.5C 151.901,209.768 150.568,209.434 149.5,208.5 Z"/></g>
<g><path style="opacity:1" fill="#4f70b7" d="M 149.5,208.5 C 153.298,207.517 157.298,207.183 161.5,207.5C 161.334,214.175 161.5,220.842 162,227.5C 163.039,226.29 164.206,225.29 165.5,224.5C 165.5,224.833 165.5,225.167 165.5,225.5C 164.833,226.833 163.833,227.833 162.5,228.5C 160.541,222.25 159.874,215.584 160.5,208.5C 156.833,208.5 153.167,208.5 149.5,208.5 Z"/></g>
<g><path style="opacity:1" fill="#1d3e9e" d="M 191.5,214.5 C 191.013,213.527 190.513,212.527 190,211.5C 189.175,222.341 189.341,233.008 190.5,243.5C 191.347,244.966 192.68,245.8 194.5,246C 190.459,246.827 186.459,246.66 182.5,245.5C 184.045,244.548 185.712,244.215 187.5,244.5C 187.5,233.167 187.5,221.833 187.5,210.5C 185.712,210.785 184.045,210.452 182.5,209.5C 188.388,208.193 194.221,208.193 200,209.5C 202,216.167 204,222.833 206,229.5C 208.472,222.583 210.639,215.583 212.5,208.5C 219.323,207.976 223.323,208.309 224.5,209.5C 224.5,221.167 224.5,232.833 224.5,244.5C 226.288,244.215 227.955,244.548 229.5,245.5C 222.833,246.833 216.167,246.833 209.5,245.5C 211.045,244.548 212.712,244.215 214.5,244.5C 214.667,233.495 214.5,222.495 214,211.5C 210.19,223.095 206.69,234.762 203.5,246.5C 202.5,246.5 201.5,246.5 200.5,246.5C 197.908,235.724 194.908,225.057 191.5,214.5 Z"/></g>
<g><path style="opacity:1" fill="#143a9c" d="M 248.5,207.5 C 253.032,207.074 257.199,208.074 261,210.5C 262.11,208.963 263.61,208.297 265.5,208.5C 265.5,211.833 265.5,215.167 265.5,218.5C 264.325,218.719 263.325,218.386 262.5,217.5C 259.178,209.669 253.678,207.669 246,211.5C 244.416,220.758 244.083,230.091 245,239.5C 245.45,241.519 246.283,243.352 247.5,245C 251.295,245.837 254.961,245.504 258.5,244C 260.893,241.358 262.893,238.525 264.5,235.5C 265.489,239.107 265.823,242.774 265.5,246.5C 263.61,246.703 262.11,246.037 261,244.5C 254.989,248.281 248.822,248.448 242.5,245C 234.309,238.763 231.476,230.596 234,220.5C 237.195,214.128 242.028,209.795 248.5,207.5 Z"/></g>
<g><path style="opacity:1" fill="#003399" d="M 269.5,209.5 C 269.5,209.167 269.5,208.833 269.5,208.5C 273.167,208.5 276.833,208.5 280.5,208.5C 280.172,220.678 280.505,232.678 281.5,244.5C 282.263,245.268 283.263,245.768 284.5,246C 279.316,246.816 274.316,246.65 269.5,245.5C 270.833,245.5 272.167,245.5 273.5,245.5C 273.5,233.5 273.5,221.5 273.5,209.5C 272.167,209.5 270.833,209.5 269.5,209.5 Z"/></g>
<g><path style="opacity:1" fill="#5c7bbd" d="M 269.5,208.5 C 273.298,207.517 277.298,207.183 281.5,207.5C 281.5,219.833 281.5,232.167 281.5,244.5C 280.505,232.678 280.172,220.678 280.5,208.5C 276.833,208.5 273.167,208.5 269.5,208.5 Z"/></g>
<g><path style="opacity:1" fill="#06359a" d="M 413.5,209.5 C 426.458,211.758 439.458,213.758 452.5,215.5C 449.844,228.3 445.678,240.633 440,252.5C 436.888,253.573 433.721,253.573 430.5,252.5C 431.041,247.693 431.874,243.026 433,238.5C 430.29,242.753 427.457,246.92 424.5,251C 412.471,250.431 400.471,249.264 388.5,247.5C 393.381,245.125 397.548,241.791 401,237.5C 405.65,228.385 409.816,219.052 413.5,209.5 Z"/></g>
<g><path style="opacity:1" fill="#cad3e9" d="M 42.5,209.5 C 44.1667,209.5 45.8333,209.5 47.5,209.5C 47.5,221.5 47.5,233.5 47.5,245.5C 49.7427,246.61 54.7427,246.943 62.5,246.5C 56.021,247.491 49.3543,247.824 42.5,247.5C 42.5,246.5 42.5,245.5 42.5,244.5C 43.8333,244.5 45.1667,244.5 46.5,244.5C 46.5,233.167 46.5,221.833 46.5,210.5C 44.901,210.768 43.5676,210.434 42.5,209.5 Z"/></g>
<g><path style="opacity:1" fill="#8ba1d0" d="M 149.5,208.5 C 150.568,209.434 151.901,209.768 153.5,209.5C 153.5,221.5 153.5,233.5 153.5,245.5C 152.167,245.5 150.833,245.5 149.5,245.5C 150.209,244.596 151.209,244.263 152.5,244.5C 152.5,233.167 152.5,221.833 152.5,210.5C 151.022,210.762 149.689,210.429 148.5,209.5C 148.624,208.893 148.957,208.56 149.5,208.5 Z"/></g>
<g><path style="opacity:1" fill="#7892c8" d="M 269.5,209.5 C 270.833,209.5 272.167,209.5 273.5,209.5C 273.5,221.5 273.5,233.5 273.5,245.5C 272.167,245.5 270.833,245.5 269.5,245.5C 270.209,244.596 271.209,244.263 272.5,244.5C 272.5,233.167 272.5,221.833 272.5,210.5C 271.209,210.737 270.209,210.404 269.5,209.5 Z"/></g>
<g><path style="opacity:1" fill="#738dc6" d="M 95.5,181.5 C 95.8405,193.701 96.8405,205.701 98.5,217.5C 97.791,218.404 96.791,218.737 95.5,218.5C 95.6665,206.495 95.4999,194.495 95,182.5C 94.2825,183.451 93.4491,183.617 92.5,183C 93.2438,181.961 94.2438,181.461 95.5,181.5 Z"/></g>
<g><path style="opacity:1" fill="#9db1d8" d="M 191.5,214.5 C 190.506,223.986 190.173,233.652 190.5,243.5C 189.341,233.008 189.175,222.341 190,211.5C 190.513,212.527 191.013,213.527 191.5,214.5 Z"/></g>
<g><path style="opacity:1" fill="#9895ff" d="M 378.5,211.5 C 378.477,213.927 377.977,216.26 377,218.5C 376.506,216.866 376.34,215.199 376.5,213.5C 377.167,212.833 377.833,212.167 378.5,211.5 Z"/></g>
<g><path style="opacity:1" fill="#a69dff" d="M 480.5,220.5 C 486.059,223.043 485.726,223.877 479.5,223C 480.252,222.329 480.586,221.496 480.5,220.5 Z"/></g>
<g><path style="opacity:1" fill="#153a9c" d="M 89.5,246.5 C 83.3938,246.923 79.3938,246.59 77.5,245.5C 77.824,238.646 77.4907,231.979 76.5,225.5C 75.325,225.719 74.325,225.386 73.5,224.5C 77.1073,223.511 80.774,223.177 84.5,223.5C 84.3398,225.199 84.5065,226.866 85,228.5C 87.0724,223.857 90.5724,222.357 95.5,224C 98.5159,227.953 97.6825,230.786 93,232.5C 90.1078,231.18 88.7745,228.846 89,225.5C 88,226.833 87,228.167 86,229.5C 85.5006,234.823 85.334,240.156 85.5,245.5C 87.099,245.232 88.4324,245.566 89.5,246.5 Z"/></g>
<g><path style="opacity:1" fill="#1a3d9e" d="M 106.5,223.5 C 111.777,222.931 116.777,223.765 121.5,226C 123.497,228.492 124.497,231.325 124.5,234.5C 119.167,234.5 113.833,234.5 108.5,234.5C 108.071,238.257 108.737,241.757 110.5,245C 112.833,245.667 115.167,245.667 117.5,245C 119.977,243.135 122.311,241.468 124.5,240C 120.636,246.397 114.97,248.73 107.5,247C 100.567,243.628 98.0671,238.128 100,230.5C 101.694,227.642 103.861,225.309 106.5,223.5 Z"/></g>
<g><path style="opacity:1" fill="#06359a" d="M 165.5,225.5 C 165.5,225.167 165.5,224.833 165.5,224.5C 166.793,223.842 168.293,223.508 170,223.5C 172.47,223.34 174.636,224.007 176.5,225.5C 177.462,232.108 177.795,238.774 177.5,245.5C 174.833,246.833 172.167,246.833 169.5,245.5C 169.666,239.158 169.5,232.825 169,226.5C 167.989,225.663 166.822,225.33 165.5,225.5 Z"/></g>
<g><path style="opacity:1" fill="#2140a0" d="M 295.5,223.5 C 299.967,223.133 304.3,223.633 308.5,225C 311.489,227.483 312.822,230.65 312.5,234.5C 307.5,234.5 302.5,234.5 297.5,234.5C 297.211,238.106 297.544,241.606 298.5,245C 301.167,245.667 303.833,245.667 306.5,245C 308.351,243.316 310.018,241.483 311.5,239.5C 311.639,243.275 309.639,245.775 305.5,247C 295.381,249.354 289.381,245.521 287.5,235.5C 288.196,230.088 290.863,226.088 295.5,223.5 Z"/></g>
<g><path style="opacity:1" fill="#1c3d9e" d="M 322.5,223.5 C 327.179,223.334 331.845,223.501 336.5,224C 337.333,224.833 338.167,225.667 339,226.5C 339.499,232.157 339.666,237.824 339.5,243.5C 340.873,243.343 342.207,243.51 343.5,244C 339.374,248.835 335.541,248.669 332,243.5C 328.003,247.857 323.503,248.523 318.5,245.5C 316.243,239.562 318.243,235.729 324.5,234C 327.146,233.503 329.813,233.336 332.5,233.5C 334.159,227.174 331.826,224.174 325.5,224.5C 327.879,229.933 326.213,232.433 320.5,232C 317.614,228.374 318.281,225.541 322.5,223.5 Z"/></g>
<g><path style="opacity:1" fill="#0b379b" d="M 344.5,223.5 C 348.5,223.5 352.5,223.5 356.5,223.5C 356.367,228.272 357.7,228.438 360.5,224C 364.091,223.211 367.591,223.378 371,224.5C 372.384,231.411 372.884,238.411 372.5,245.5C 369.833,246.833 367.167,246.833 364.5,245.5C 364.666,239.158 364.5,232.825 364,226.5C 363.439,225.978 362.772,225.645 362,225.5C 360.056,226.439 358.389,227.773 357,229.5C 356.501,234.823 356.334,240.156 356.5,245.5C 353.134,246.808 350.468,246.808 348.5,245.5C 348.5,238.833 348.5,232.167 348.5,225.5C 346.517,225.843 345.183,225.176 344.5,223.5 Z"/></g>
<g><path style="opacity:1" fill="#f4f5fa" d="M 109.5,224.5 C 115.905,223.406 118.238,226.073 116.5,232.5C 113.833,232.5 111.167,232.5 108.5,232.5C 108.279,229.721 108.612,227.054 109.5,224.5 Z"/></g>
<g><path style="opacity:1" fill="#f3f5fa" d="M 298.5,224.5 C 300.467,224.261 302.301,224.594 304,225.5C 304.497,227.81 304.663,230.143 304.5,232.5C 301.833,232.5 299.167,232.5 296.5,232.5C 296.107,229.487 296.774,226.82 298.5,224.5 Z"/></g>
<g><path style="opacity:1" fill="#1a3d9e" d="M 132.5,223.5 C 136.833,223.5 141.167,223.5 145.5,223.5C 145.952,229.707 144.619,230.541 141.5,226C 137.6,223.595 134.266,224.095 131.5,227.5C 132.09,228.799 133.09,229.632 134.5,230C 145.591,229.403 149.424,234.237 146,244.5C 141.512,247.953 136.845,248.287 132,245.5C 130.989,246.337 129.822,246.67 128.5,246.5C 128.187,243.753 128.52,241.086 129.5,238.5C 130.803,240.937 132.47,243.104 134.5,245C 137.167,245.667 139.833,245.667 142.5,245C 145.326,242.478 144.993,240.478 141.5,239C 128.877,238.901 125.877,233.734 132.5,223.5 Z"/></g>
<g><path style="opacity:1" fill="#5f7dbe" d="M 60.5,228.5 C 59.5,228.5 58.5,228.5 57.5,228.5C 57.5,233.833 57.5,239.167 57.5,244.5C 56.5111,239.025 56.1778,233.358 56.5,227.5C 58.099,227.232 59.4324,227.566 60.5,228.5 Z"/></g>
<g><path style="opacity:1" fill="#f3f4fa" d="M 326.5,235.5 C 328.167,235.5 329.833,235.5 331.5,235.5C 331.663,237.857 331.497,240.19 331,242.5C 324.286,243.961 322.786,241.628 326.5,235.5 Z"/></g>
<g><path style="opacity:1" fill="#a0b1d8" d="M 76.5,225.5 C 77.4907,231.979 77.824,238.646 77.5,245.5C 79.3938,246.59 83.3938,246.923 89.5,246.5C 84.3595,247.488 79.0262,247.821 73.5,247.5C 73.5,246.5 73.5,245.5 73.5,244.5C 74.5,244.5 75.5,244.5 76.5,244.5C 76.5,238.167 76.5,231.833 76.5,225.5 Z"/></g>
<g><path style="opacity:1" fill="#8479ff" d="M 133.5,254.5 C 134.473,254.987 135.473,255.487 136.5,256C 135.333,256.5 134.5,257.333 134,258.5C 133.5,257.333 132.667,256.5 131.5,256C 132.416,255.722 133.082,255.222 133.5,254.5 Z"/></g>
<g><path style="opacity:1" fill="#327d52" d="M 472.5,256.5 C 472.992,260.488 475.325,262.654 479.5,263C 474.667,262.5 472.5,264.667 473,269.5C 471.681,267.75 471.181,265.75 471.5,263.5C 463.652,263.415 463.652,262.749 471.5,261.5C 471.366,259.708 471.699,258.042 472.5,256.5 Z"/></g>
<g><path style="opacity:1" fill="#467844" d="M 135.5,261.5 C 139.31,262.754 139.31,263.754 135.5,264.5C 135.5,263.5 135.5,262.5 135.5,261.5 Z"/></g>
<g><path style="opacity:1" fill="#35733f" d="M 57.5,261.5 C 60.6169,261.872 63.6169,261.872 66.5,261.5C 67.8333,263.5 67.8333,265.5 66.5,267.5C 64.0594,263.179 60.8928,262.512 57,265.5C 54.8319,271.979 56.9986,274.812 63.5,274C 64.7014,273.097 65.5348,271.931 66,270.5C 66.5356,272.567 66.0356,274.401 64.5,276C 56.3087,277.142 52.8087,273.642 54,265.5C 55.3756,264.295 56.5423,262.962 57.5,261.5 Z"/></g>
<g><path style="opacity:1" fill="#3b723f" d="M 212.5,262.5 C 213.434,263.568 213.768,264.901 213.5,266.5C 217.5,266.833 217.5,267.167 213.5,267.5C 213.192,269.924 213.526,272.257 214.5,274.5C 215.167,273.5 215.833,272.5 216.5,271.5C 218.052,275.928 216.386,277.595 211.5,276.5C 211.751,273.091 211.417,269.758 210.5,266.5C 211.853,265.476 212.52,264.143 212.5,262.5 Z"/></g>
<g><path style="opacity:1" fill="#417545" d="M 353.5,262.5 C 354.926,263.802 356.259,265.302 357.5,267C 355.363,269.179 355.029,271.679 356.5,274.5C 358.163,270.665 358.663,270.999 358,275.5C 356.333,276.833 354.667,276.833 353,275.5C 352.744,272.443 352.244,269.443 351.5,266.5C 352.853,265.476 353.52,264.143 353.5,262.5 Z"/></g>
<g><path style="opacity:1" fill="#36703c" d="M 87.5,267.5 C 84.8987,270.337 84.8987,273.17 87.5,276C 85.4213,276.808 83.4213,276.641 81.5,275.5C 84.1127,272.582 84.1127,269.749 81.5,267C 83.5454,266.51 85.5454,266.677 87.5,267.5 Z"/></g>
<g><path style="opacity:1" fill="#316d39" d="M 125.5,267.5 C 122.899,270.337 122.899,273.17 125.5,276C 123.5,276.667 121.5,276.667 119.5,276C 122.082,272.958 122.082,269.958 119.5,267C 121.545,266.51 123.545,266.677 125.5,267.5 Z"/></g>
<g><path style="opacity:1" fill="#106839" d="M 134.5,267.5 C 135.568,266.566 136.901,266.232 138.5,266.5C 137.989,270.03 138.656,273.196 140.5,276C 138.421,276.808 136.421,276.641 134.5,275.5C 135.585,274.216 136.252,272.716 136.5,271C 136.392,269.319 135.725,268.152 134.5,267.5 Z"/></g>
<g><path style="opacity:1" fill="#2a6c3e" d="M 233.5,271.5 C 233.714,269.856 233.38,268.356 232.5,267C 234.167,266.333 235.833,266.333 237.5,267C 235.93,268.397 234.596,269.897 233.5,271.5 Z"/></g>
<g><path style="opacity:1" fill="#236d40" d="M 251.5,267.5 C 252.568,266.566 253.901,266.232 255.5,266.5C 255.5,269.167 255.5,271.833 255.5,274.5C 257.144,274.714 258.644,274.38 260,273.5C 260.495,271.527 260.662,269.527 260.5,267.5C 259.448,267.649 258.448,267.483 257.5,267C 259.134,266.506 260.801,266.34 262.5,266.5C 262.216,269.777 262.549,272.943 263.5,276C 260.269,275.61 256.935,275.776 253.5,276.5C 254.055,272.988 253.388,269.988 251.5,267.5 Z"/></g>
<g><path style="opacity:1" fill="#3b764e" d="M 271.5,265.5 C 274.5,265.167 275.833,266.5 275.5,269.5C 273.857,269.52 272.524,268.853 271.5,267.5C 270.005,270.645 270.338,273.478 272.5,276C 270.098,276.814 267.765,276.647 265.5,275.5C 268.113,272.582 268.113,269.749 265.5,267C 267.708,266.809 269.708,266.309 271.5,265.5 Z"/></g>
<g><path style="opacity:1" fill="#3b764e" d="M 328.5,265.5 C 331.5,265.167 332.833,266.5 332.5,269.5C 330.857,269.52 329.524,268.853 328.5,267.5C 327.005,270.645 327.338,273.478 329.5,276C 327.098,276.814 324.765,276.647 322.5,275.5C 325.113,272.582 325.113,269.749 322.5,267C 324.708,266.809 326.708,266.309 328.5,265.5 Z"/></g>
<g><path style="opacity:1" fill="#357853" d="M 377.5,265.5 C 381.865,264.993 384.198,266.826 384.5,271C 384.167,275.932 381.5,277.765 376.5,276.5C 376.48,278.143 377.147,279.476 378.5,280.5C 376.167,281.833 373.833,281.833 371.5,280.5C 373.75,276.158 374.083,271.658 372.5,267C 373.784,266.316 374.951,266.483 376,267.5C 376.717,266.956 377.217,266.289 377.5,265.5 Z"/></g>
<g><path style="opacity:1" fill="#1f6b3b" d="M 87.5,267.5 C 88.5849,265.418 90.0849,265.084 92,266.5C 92.3333,269.167 92.6667,271.833 93,274.5C 95.0318,275.94 94.6984,276.607 92,276.5C 91.1667,276.333 90.3333,276.167 89.5,276C 90.4438,273.281 90.7771,270.448 90.5,267.5C 89.5,267.5 88.5,267.5 87.5,267.5 Z"/></g>
<g><path style="opacity:1" fill="#1f6b3b" d="M 125.5,267.5 C 126.585,265.418 128.085,265.084 130,266.5C 130.333,269.167 130.667,271.833 131,274.5C 133.032,275.94 132.698,276.607 130,276.5C 129.167,276.333 128.333,276.167 127.5,276C 128.444,273.281 128.777,270.448 128.5,267.5C 127.5,267.5 126.5,267.5 125.5,267.5 Z"/></g>
<g><path style="opacity:1" fill="#498153" d="M 144.5,265.5 C 149.339,264.677 151.673,266.677 151.5,271.5C 149.167,271.5 146.833,271.5 144.5,271.5C 144.5,272.5 144.5,273.5 144.5,274.5C 146.821,274.771 148.821,274.104 150.5,272.5C 151.529,275.308 150.362,276.642 147,276.5C 140.734,274.185 139.9,270.519 144.5,265.5 Z"/></g>
<g><path style="opacity:1" fill="#3c7644" d="M 171.5,265.5 C 175.56,264.848 177.56,266.515 177.5,270.5C 176.5,270.5 175.5,270.5 174.5,270.5C 174.5,269.5 174.5,268.5 174.5,267.5C 170.527,268.075 169.527,270.242 171.5,274C 173.433,274.783 174.933,274.283 176,272.5C 176.667,273.5 176.667,274.5 176,275.5C 171.578,277.517 168.745,276.184 167.5,271.5C 167.67,268.674 169.003,266.674 171.5,265.5 Z"/></g>
<g><path style="opacity:1" fill="#397341" d="M 289.5,261.5 C 290.833,261.5 292.167,261.5 293.5,261.5C 293.334,265.846 293.501,270.179 294,274.5C 294.5,275 295,275.5 295.5,276C 291.775,276.76 288.108,276.593 284.5,275.5C 283.217,272.628 283.217,269.795 284.5,267C 286.425,265.405 288.425,265.238 290.5,266.5C 290.833,266 291.167,265.5 291.5,265C 290.571,263.923 289.904,262.756 289.5,261.5 Z"/></g>
<g><path style="opacity:1" fill="#387749" d="M 342.5,265.5 C 346.126,264.861 347.959,266.194 348,269.5C 346.759,267.579 345.259,267.246 343.5,268.5C 345.113,269.427 346.779,270.261 348.5,271C 349.833,272.667 349.833,274.333 348.5,276C 345.854,276.497 343.187,276.664 340.5,276.5C 340.442,272.299 341.442,271.799 343.5,275C 344.448,275.483 345.448,275.649 346.5,275.5C 346.5,274.5 346.5,273.5 346.5,272.5C 340.616,272.337 339.282,270.004 342.5,265.5 Z"/></g>
<g><path style="opacity:1" fill="#417e55" d="M 363.5,265.5 C 367.734,265.406 370.067,267.406 370.5,271.5C 368.167,271.5 365.833,271.5 363.5,271.5C 363.5,272.5 363.5,273.5 363.5,274.5C 365.821,274.771 367.821,274.104 369.5,272.5C 370.739,274.007 370.405,275.174 368.5,276C 363.248,277.856 360.581,276.022 360.5,270.5C 360.771,268.307 361.771,266.641 363.5,265.5 Z"/></g>
<g><path style="opacity:1" fill="#2b6f3e" d="M 72.5,265.5 C 79.0303,265.243 81.197,268.243 79,274.5C 75.8695,277.122 72.7028,277.122 69.5,274.5C 67.6639,270.45 68.6639,267.45 72.5,265.5 Z"/></g>
<g><path style="opacity:1" fill="#dfebe4" d="M 72.5,267.5 C 77.378,267.535 78.7113,269.868 76.5,274.5C 74.9579,275.747 73.4579,275.747 72,274.5C 71.2967,272.071 71.4634,269.738 72.5,267.5 Z"/></g>
<g><path style="opacity:1" fill="#3b7d56" d="M 111.5,265.5 C 115.693,265.362 118.027,267.362 118.5,271.5C 116.167,271.5 113.833,271.5 111.5,271.5C 111.5,272.5 111.5,273.5 111.5,274.5C 113.766,274.859 115.599,274.192 117,272.5C 117.86,275.478 116.693,276.812 113.5,276.5C 111.626,276.61 110.126,275.944 109,274.5C 107.779,270.718 108.613,267.718 111.5,265.5 Z"/></g>
<g><path style="opacity:1" fill="#237147" d="M 160.5,265.5 C 161.822,265.33 162.989,265.663 164,266.5C 164.064,269.763 164.898,272.763 166.5,275.5C 164.579,276.641 162.579,276.808 160.5,276C 162.314,273.519 162.98,270.685 162.5,267.5C 161.178,267.33 160.011,267.663 159,268.5C 158.231,271.099 158.398,273.599 159.5,276C 157.421,276.808 155.421,276.641 153.5,275.5C 156.113,272.582 156.113,269.749 153.5,267C 156.036,266.814 158.369,266.314 160.5,265.5 Z"/></g>
<g><path style="opacity:1" fill="#3b7d56" d="M 182.5,265.5 C 186.693,265.362 189.027,267.362 189.5,271.5C 187.167,271.5 184.833,271.5 182.5,271.5C 182.5,272.5 182.5,273.5 182.5,274.5C 184.766,274.859 186.599,274.192 188,272.5C 188.86,275.478 187.693,276.812 184.5,276.5C 182.626,276.61 181.126,275.944 180,274.5C 178.779,270.718 179.613,267.718 182.5,265.5 Z"/></g>
<g><path style="opacity:1" fill="#3f7e56" d="M 200.5,265.5 C 202.262,265.357 203.929,265.691 205.5,266.5C 206.167,269.167 206.833,271.833 207.5,274.5C 208.192,273.975 208.692,273.308 209,272.5C 209.49,273.793 209.657,275.127 209.5,276.5C 205.668,275.859 201.835,275.526 198,275.5C 197.135,273.112 197.968,271.612 200.5,271C 197.892,269.063 197.892,267.23 200.5,265.5 Z"/></g>
<g><path style="opacity:1" fill="#2d7248" d="M 241.5,265.5 C 249.302,265.787 251.302,269.287 247.5,276C 244.77,276.728 242.103,276.562 239.5,275.5C 237.973,271.622 238.64,268.289 241.5,265.5 Z"/></g>
<g><path style="opacity:1" fill="#e6ede2" d="M 242.5,267.5 C 247.068,267.083 248.568,269.083 247,273.5C 245.604,275.527 243.938,275.86 242,274.5C 241.297,272.071 241.463,269.738 242.5,267.5 Z"/></g>
<g><path style="opacity:1" fill="#e0ede3" d="M 287.5,267.5 C 288.822,267.33 289.989,267.663 291,268.5C 291.495,270.473 291.662,272.473 291.5,274.5C 289.833,274.5 288.167,274.5 286.5,274.5C 286.298,272.05 286.631,269.717 287.5,267.5 Z"/></g>
<g><path style="opacity:1" fill="#2e734a" d="M 300.5,265.5 C 308.022,265.67 310.022,269.003 306.5,275.5C 301.292,277.893 298.292,276.393 297.5,271C 297.685,268.624 298.685,266.791 300.5,265.5 Z"/></g>
<g><path style="opacity:1" fill="#eff6ef" d="M 300.5,267.5 C 302.144,267.286 303.644,267.62 305,268.5C 305.758,270.769 305.591,272.936 304.5,275C 303.216,275.684 302.049,275.517 301,274.5C 300.503,272.19 300.337,269.857 300.5,267.5 Z"/></g>
<g><path style="opacity:1" fill="#2e734a" d="M 313.5,265.5 C 321.022,265.67 323.022,269.003 319.5,275.5C 314.292,277.893 311.292,276.393 310.5,271C 310.685,268.624 311.685,266.791 313.5,265.5 Z"/></g>
<g><path style="opacity:1" fill="#eff6ef" d="M 313.5,267.5 C 315.144,267.286 316.644,267.62 318,268.5C 318.758,270.769 318.591,272.936 317.5,275C 316.216,275.684 315.049,275.517 314,274.5C 313.503,272.19 313.337,269.857 313.5,267.5 Z"/></g>
<g><path style="opacity:1" fill="#e8efe2" d="M 377.5,267.5 C 381.473,268.075 382.473,270.242 380.5,274C 379.207,274.49 377.873,274.657 376.5,274.5C 376.298,272.05 376.631,269.717 377.5,267.5 Z"/></g>
<g><path style="opacity:1" fill="#397446" d="M 95.5,267.5 C 96.9187,266.549 98.5853,266.216 100.5,266.5C 100.687,268.564 101.187,270.564 102,272.5C 103.11,270.603 103.276,268.77 102.5,267C 104.167,266.333 105.833,266.333 107.5,267C 104.953,269.253 103.286,272.086 102.5,275.5C 101.675,276.386 100.675,276.719 99.5,276.5C 99.6743,272.64 98.3409,269.64 95.5,267.5 Z"/></g>
<g><path style="opacity:1" fill="#f2efd7" d="M 202.5,271.5 C 204.048,271.821 204.715,272.821 204.5,274.5C 201.752,274.598 201.086,273.598 202.5,271.5 Z"/></g>
<g><path style="opacity:1" fill="#307246" d="M 233.5,271.5 C 232.848,274.968 231.515,278.135 229.5,281C 226.07,281.638 224.737,280.138 225.5,276.5C 226.5,276.5 227.5,276.5 228.5,276.5C 228.351,277.552 228.517,278.552 229,279.5C 230.44,278.07 230.774,276.403 230,274.5C 229.152,271.62 227.652,269.12 225.5,267C 227.5,266.333 229.5,266.333 231.5,267C 229.344,268.694 229.511,270.527 232,272.5C 232.383,271.944 232.883,271.611 233.5,271.5 Z"/></g>
<g><path style="opacity:1" fill="#467745" d="M 47.5,273.5 C 51.31,274.754 51.31,275.754 47.5,276.5C 47.5,275.5 47.5,274.5 47.5,273.5 Z"/></g>
<g><path style="opacity:1" fill="#8277ff" d="M 457.5,297.5 C 458.473,297.987 459.473,298.487 460.5,299C 459.333,299.5 458.5,300.333 458,301.5C 457.5,300.333 456.667,299.5 455.5,299C 456.416,298.722 457.082,298.222 457.5,297.5 Z"/></g>
</svg>
