<svg width="50" height="31" viewBox="0 0 50 31" fill="none" xmlns="http://www.w3.org/2000/svg">
<path d="M31.7595 3.31543H18.2402V27.6849H31.7595V3.31543Z" fill="#FF5F00"/>
<path d="M19.0984 15.4999C19.0984 10.7638 21.2872 6.24298 24.9782 3.3152C18.2829 -1.98063 8.58336 -0.818134 3.30439 5.94159C-1.97458 12.6583 -0.815784 22.3888 5.92241 27.6846C11.5447 32.1194 19.3988 32.1194 25.0211 27.6846C21.2872 24.7569 19.0984 20.236 19.0984 15.4999Z" fill="#EB001B"/>
<path d="M50 15.4999C50 24.068 43.0902 30.9999 34.5494 30.9999C31.073 30.9999 27.7253 29.8374 25.0215 27.6846C31.7168 22.3888 32.8756 12.6583 27.5966 5.89853C26.8241 4.95131 25.9657 4.04714 25.0215 3.3152C31.7168 -1.98063 41.4593 -0.818134 46.6953 5.94159C48.8412 8.65409 50 12.0124 50 15.4999Z" fill="#F79E1B"/>
<path d="M48.5407 25.1013V24.5846H48.7553V24.4985H48.2402V24.5846H48.4548V25.1013H48.5407ZM49.5278 25.1013V24.4985H49.3561L49.1844 24.9291L49.0128 24.4985H48.8411V25.1013H48.9698V24.6277L49.1415 25.0152H49.2703L49.4419 24.6277V25.1013H49.5278Z" fill="#F79E1B"/>
</svg>
