<?xml version="1.0" encoding="UTF-8"?>
<!DOCTYPE svg PUBLIC "-//W3C//DTD SVG 1.1//EN" "http://www.w3.org/Graphics/SVG/1.1/DTD/svg11.dtd">
<svg xmlns="http://www.w3.org/2000/svg" version="1.1" width="548px" height="308px" style="shape-rendering:geometricPrecision; text-rendering:geometricPrecision; image-rendering:optimizeQuality; fill-rule:evenodd; clip-rule:evenodd" xmlns:xlink="http://www.w3.org/1999/xlink">
<g><path style="opacity:1" fill="#fdfdfe" d="M -0.5,-0.5 C 182.167,-0.5 364.833,-0.5 547.5,-0.5C 547.5,102.167 547.5,204.833 547.5,307.5C 364.833,307.5 182.167,307.5 -0.5,307.5C -0.5,204.833 -0.5,102.167 -0.5,-0.5 Z"/></g>
<g><path style="opacity:1" fill="#06349a" d="M 260.5,18.5 C 262.371,18.8588 263.871,19.8588 265,21.5C 313.167,82.3333 361.333,143.167 409.5,204C 408.833,204.667 408.167,204.667 407.5,204C 364.949,167.112 322.116,130.612 279,94.5C 191.039,135.21 103.206,176.21 15.5,217.5C 14.1759,234.397 14.1759,251.231 15.5,268C 154.833,268.333 294.167,268.667 433.5,269C 468.171,269.167 502.838,269.667 537.5,270.5C 362.501,271.396 187.501,271.396 12.5,270.5C 12.8328,253.487 12.4995,236.487 11.5,219.5C 9.92221,220.64 8.25554,221.14 6.5,221C 38.3107,196.024 69.9773,170.857 101.5,145.5C 102.5,127.179 102.833,108.845 102.5,90.5C 111.167,90.5 119.833,90.5 128.5,90.5C 128.333,101.505 128.5,112.505 129,123.5C 173.309,89.0162 217.143,54.0162 260.5,18.5 Z"/></g>
<g><path style="opacity:1" fill="#a3a1ff" d="M 462.5,123.5 C 461.833,123.833 461.167,124.167 460.5,124.5C 460.372,122.345 460.872,120.345 462,118.5C 462.494,120.134 462.66,121.801 462.5,123.5 Z"/></g>
<g><path style="opacity:1" fill="#4b42ff" d="M 462.5,123.5 C 462.215,127.038 463.882,128.871 467.5,129C 465.866,129.494 464.199,129.66 462.5,129.5C 462.5,130.833 462.5,132.167 462.5,133.5C 461.833,133.167 461.167,132.833 460.5,132.5C 460.5,131.5 460.5,130.5 460.5,129.5C 451.286,129.454 451.286,128.787 460.5,127.5C 460.5,126.5 460.5,125.5 460.5,124.5C 461.167,124.167 461.833,123.833 462.5,123.5 Z"/></g>
<g><path style="opacity:1" fill="#4132ff" d="M 425.5,128.5 C 426.487,133.305 426.821,138.305 426.5,143.5C 430.56,143.485 434.56,143.985 438.5,145C 434.855,145.719 431.188,146.219 427.5,146.5C 426.498,163.825 425.498,163.825 424.5,146.5C 407.175,145.502 407.175,144.502 424.5,143.5C 424.503,138.473 424.836,133.473 425.5,128.5 Z"/></g>
<g><path style="opacity:1" fill="#aba9ff" d="M 460.5,132.5 C 461.167,132.833 461.833,133.167 462.5,133.5C 461.754,138.479 461.088,138.146 460.5,132.5 Z"/></g>
<g><path style="opacity:1" fill="#a19eff" d="M 495.5,137.5 C 494.833,138.167 494.167,138.833 493.5,139.5C 493.372,137.345 493.872,135.345 495,133.5C 495.49,134.793 495.657,136.127 495.5,137.5 Z"/></g>
<g><path style="opacity:1" fill="#392fff" d="M 495.5,137.5 C 495.5,140.167 495.5,142.833 495.5,145.5C 504.635,145.703 504.635,146.37 495.5,147.5C 495.47,158.068 494.804,158.068 493.5,147.5C 481.697,146.367 481.697,145.7 493.5,145.5C 493.5,143.5 493.5,141.5 493.5,139.5C 494.167,138.833 494.833,138.167 495.5,137.5 Z"/></g>
<g><path style="opacity:1" fill="#003299" d="M 215.5,145.5 C 226.833,145.5 238.167,145.5 249.5,145.5C 249.5,152.833 249.5,160.167 249.5,167.5C 238.167,167.5 226.833,167.5 215.5,167.5C 215.5,160.167 215.5,152.833 215.5,145.5 Z"/></g>
<g><path style="opacity:1" fill="#003299" d="M 260.5,146.5 C 271.833,146.5 283.167,146.5 294.5,146.5C 294.5,153.833 294.5,161.167 294.5,168.5C 283.167,168.5 271.833,168.5 260.5,168.5C 260.5,161.167 260.5,153.833 260.5,146.5 Z"/></g>
<g><path style="opacity:1" fill="#aca4ff" d="M 470.5,152.5 C 471.452,153.452 472.452,154.452 473.5,155.5C 472.675,156.386 471.675,156.719 470.5,156.5C 470.5,155.167 470.5,153.833 470.5,152.5 Z"/></g>
<g><path style="opacity:1" fill="#8279ff" d="M 187.5,162.5 C 189.765,163.94 189.932,165.607 188,167.5C 187.5,166.333 186.667,165.5 185.5,165C 186.756,164.583 187.423,163.75 187.5,162.5 Z"/></g>
<g><path style="opacity:1" fill="#9b98ff" d="M 463.5,163.5 C 462.833,164.167 462.167,164.833 461.5,165.5C 461.372,163.345 461.872,161.345 463,159.5C 463.49,160.793 463.657,162.127 463.5,163.5 Z"/></g>
<g><path style="opacity:1" fill="#4d3cff" d="M 463.5,163.5 C 463.5,166.5 463.5,169.5 463.5,172.5C 479.499,173.5 479.499,174.5 463.5,175.5C 463.477,192.748 462.81,192.748 461.5,175.5C 445.522,174.505 445.522,173.505 461.5,172.5C 461.5,170.167 461.5,167.833 461.5,165.5C 462.167,164.833 462.833,164.167 463.5,163.5 Z"/></g>
<g><path style="opacity:1" fill="#3a2eff" d="M 336.5,169.5 C 337.477,172.287 337.81,175.287 337.5,178.5C 345.5,178.833 345.5,179.167 337.5,179.5C 337.663,181.857 337.497,184.19 337,186.5C 336.764,184.236 336.264,182.069 335.5,180C 333.167,179.667 330.833,179.333 328.5,179C 331.095,178.774 333.595,178.274 336,177.5C 336.497,174.854 336.664,172.187 336.5,169.5 Z"/></g>
<g><path style="opacity:1" fill="#003299" d="M 215.5,178.5 C 226.833,178.5 238.167,178.5 249.5,178.5C 249.5,185.833 249.5,193.167 249.5,200.5C 238.167,200.5 226.833,200.5 215.5,200.5C 215.5,193.167 215.5,185.833 215.5,178.5 Z"/></g>
<g><path style="opacity:1" fill="#003299" d="M 260.5,178.5 C 271.833,178.5 283.167,178.5 294.5,178.5C 294.5,185.833 294.5,193.167 294.5,200.5C 283.167,200.5 271.833,200.5 260.5,200.5C 260.5,193.167 260.5,185.833 260.5,178.5 Z"/></g>
<g><path style="opacity:1" fill="#a09cff" d="M 436.5,176.5 C 437.186,177.848 438.186,179.015 439.5,180C 438.333,180.5 437.5,181.333 437,182.5C 435.204,180.598 435.037,178.598 436.5,176.5 Z"/></g>
<g><path style="opacity:1" fill="#5847ff" d="M 518.5,173.5 C 519.913,176.219 520.58,179.219 520.5,182.5C 529.81,182.672 529.81,183.172 520.5,184C 519.726,186.405 519.226,188.905 519,191.5C 518.503,188.854 518.336,186.187 518.5,183.5C 509.286,183.454 509.286,182.787 518.5,181.5C 518.5,178.833 518.5,176.167 518.5,173.5 Z"/></g>
<g><path style="opacity:1" fill="#2e27ff" d="M 490.5,191.5 C 489.5,190.833 488.5,190.167 487.5,189.5C 488.833,189.5 490.167,189.5 491.5,189.5C 491.833,180.167 492.167,180.167 492.5,189.5C 494.857,189.337 497.19,189.503 499.5,190C 497.5,190.333 495.5,190.667 493.5,191C 492.736,193.069 492.236,195.236 492,197.5C 491.809,195.292 491.309,193.292 490.5,191.5 Z"/></g>
<g><path style="opacity:1" fill="#349966" d="M 142.5,248.5 C 144.942,246.774 147.609,245.274 150.5,244C 141.84,243.5 133.173,243.334 124.5,243.5C 124.5,225.167 124.5,206.833 124.5,188.5C 134.5,188.5 144.5,188.5 154.5,188.5C 156.391,178.841 156.391,197.174 154.5,243.5C 150.651,245.765 146.651,247.431 142.5,248.5 Z"/></g>
<g><path style="opacity:1" fill="#8680ff" d="M 487.5,189.5 C 488.5,190.167 489.5,190.833 490.5,191.5C 488.073,191.477 485.74,190.977 483.5,190C 484.793,189.51 486.127,189.343 487.5,189.5 Z"/></g>
<g><path style="opacity:1" fill="#7b74ff" d="M 460.5,201.5 C 462.035,202.844 463.368,204.511 464.5,206.5C 463.5,207.5 462.5,208.5 461.5,209.5C 459.78,208.045 457.78,207.212 455.5,207C 456.905,205.731 458.571,205.231 460.5,205.5C 460.5,204.167 460.5,202.833 460.5,201.5 Z"/></g>
<g><path style="opacity:1" fill="#143a9c" d="M 201.5,215.5 C 212.321,214.505 223.321,214.172 234.5,214.5C 234.823,218.226 234.489,221.893 233.5,225.5C 230.581,217.538 224.914,214.538 216.5,216.5C 216.5,221.5 216.5,226.5 216.5,231.5C 218.199,231.66 219.866,231.494 221.5,231C 222.924,228.899 224.258,226.733 225.5,224.5C 226.833,230.167 226.833,235.833 225.5,241.5C 224.344,236.673 221.344,234.006 216.5,233.5C 216.5,239.167 216.5,244.833 216.5,250.5C 218.604,250.201 220.604,250.534 222.5,251.5C 215.858,252.664 209.192,252.831 202.5,252C 203.793,251.51 205.127,251.343 206.5,251.5C 206.5,239.5 206.5,227.5 206.5,215.5C 204.833,215.5 203.167,215.5 201.5,215.5 Z"/></g>
<g><path style="opacity:1" fill="#153a9c" d="M 342.5,214.5 C 347.844,214.334 353.177,214.501 358.5,215C 360.859,221.745 363.026,228.578 365,235.5C 367.531,228.909 369.864,222.242 372,215.5C 378.592,214.125 382.425,214.125 383.5,215.5C 383.5,227.5 383.5,239.5 383.5,251.5C 384.873,251.343 386.207,251.51 387.5,252C 381.141,252.831 374.807,252.664 368.5,251.5C 370.045,250.548 371.712,250.215 373.5,250.5C 373.667,239.828 373.5,229.161 373,218.5C 369.262,229.88 365.429,241.213 361.5,252.5C 357.064,242.196 353.398,231.529 350.5,220.5C 350.291,219.078 349.791,217.745 349,216.5C 348.174,227.674 348.341,238.674 349.5,249.5C 351.042,250.163 352.709,250.83 354.5,251.5C 350.541,252.66 346.541,252.827 342.5,252C 344.32,251.8 345.653,250.966 346.5,249.5C 347.495,238.346 347.828,227.012 347.5,215.5C 345.585,215.784 343.919,215.451 342.5,214.5 Z"/></g>
<g><path style="opacity:1" fill="#12399c" d="M 407.5,213.5 C 412.032,213.074 416.199,214.074 420,216.5C 421.11,214.963 422.61,214.297 424.5,214.5C 424.5,217.833 424.5,221.167 424.5,224.5C 423.5,224.5 422.5,224.5 421.5,224.5C 420.652,218.49 417.152,215.49 411,215.5C 407.279,215.221 404.945,216.888 404,220.5C 403.333,228.833 403.333,237.167 404,245.5C 404.45,247.519 405.283,249.352 406.5,251C 411.757,252.426 416.257,251.259 420,247.5C 420.914,245.336 422.081,243.336 423.5,241.5C 424.833,245.167 424.833,248.833 423.5,252.5C 422.554,252.013 421.554,251.68 420.5,251.5C 407.463,256.398 398.296,252.398 393,239.5C 390.873,226.74 395.706,218.073 407.5,213.5 Z"/></g>
<g><path style="opacity:1" fill="#003399" d="M 428.5,215.5 C 428.5,215.167 428.5,214.833 428.5,214.5C 432.167,214.5 435.833,214.5 439.5,214.5C 439.172,226.678 439.505,238.678 440.5,250.5C 441.263,251.268 442.263,251.768 443.5,252C 438.316,252.816 433.316,252.65 428.5,251.5C 429.833,251.5 431.167,251.5 432.5,251.5C 432.5,239.5 432.5,227.5 432.5,215.5C 431.167,215.5 429.833,215.5 428.5,215.5 Z"/></g>
<g><path style="opacity:1" fill="#4365b1" d="M 428.5,214.5 C 432.298,213.517 436.298,213.183 440.5,213.5C 440.5,225.833 440.5,238.167 440.5,250.5C 439.505,238.678 439.172,226.678 439.5,214.5C 435.833,214.5 432.167,214.5 428.5,214.5 Z"/></g>
<g><path style="opacity:1" fill="#a8b9dc" d="M 308.5,215.5 C 309.833,215.5 311.167,215.5 312.5,215.5C 312.5,227.5 312.5,239.5 312.5,251.5C 311.167,251.5 309.833,251.5 308.5,251.5C 309.209,250.596 310.209,250.263 311.5,250.5C 311.5,239.167 311.5,227.833 311.5,216.5C 310.209,216.737 309.209,216.404 308.5,215.5 Z"/></g>
<g><path style="opacity:1" fill="#7a94c9" d="M 342.5,214.5 C 343.919,215.451 345.585,215.784 347.5,215.5C 347.828,227.012 347.495,238.346 346.5,249.5C 346.5,238.5 346.5,227.5 346.5,216.5C 344.712,216.785 343.045,216.452 341.5,215.5C 341.624,214.893 341.957,214.56 342.5,214.5 Z"/></g>
<g><path style="opacity:1" fill="#97abd4" d="M 428.5,215.5 C 429.833,215.5 431.167,215.5 432.5,215.5C 432.5,227.5 432.5,239.5 432.5,251.5C 431.167,251.5 429.833,251.5 428.5,251.5C 429.209,250.596 430.209,250.263 431.5,250.5C 431.5,239.167 431.5,227.833 431.5,216.5C 430.209,216.737 429.209,216.404 428.5,215.5 Z"/></g>
<g><path style="opacity:1" fill="#7993c9" d="M 350.5,220.5 C 349.506,229.986 349.173,239.652 349.5,249.5C 348.341,238.674 348.174,227.674 349,216.5C 349.791,217.745 350.291,219.078 350.5,220.5 Z"/></g>
<g><path style="opacity:1" fill="#163a9d" d="M 248.5,252.5 C 242.394,252.923 238.394,252.59 236.5,251.5C 236.824,244.646 236.491,237.979 235.5,231.5C 234.325,231.719 233.325,231.386 232.5,230.5C 236.445,229.509 240.445,229.176 244.5,229.5C 244.343,230.873 244.51,232.207 245,233.5C 247.053,229.708 250.219,228.542 254.5,230C 257.487,233.881 256.653,236.715 252,238.5C 249.376,237.411 247.876,235.411 247.5,232.5C 246.667,233.5 245.833,234.5 245,235.5C 244.501,240.823 244.334,246.156 244.5,251.5C 246.099,251.232 247.432,251.566 248.5,252.5 Z"/></g>
<g><path style="opacity:1" fill="#1a3d9e" d="M 265.5,229.5 C 270.297,229.121 274.964,229.621 279.5,231C 282.076,233.651 283.409,236.818 283.5,240.5C 278.167,240.5 272.833,240.5 267.5,240.5C 265.63,249.347 268.963,252.847 277.5,251C 284.502,244.001 284.835,244.335 278.5,252C 267.365,255.982 260.699,252.315 258.5,241C 258.946,235.927 261.28,232.094 265.5,229.5 Z"/></g>
<g><path style="opacity:1" fill="#10399c" d="M 308.5,251.5 C 309.833,251.5 311.167,251.5 312.5,251.5C 312.5,239.5 312.5,227.5 312.5,215.5C 311.167,215.5 309.833,215.5 308.5,215.5C 312.029,213.577 316.029,212.911 320.5,213.5C 320.334,220.175 320.5,226.842 321,233.5C 325.547,229.107 330.547,228.44 336,231.5C 336.5,238.158 336.666,244.825 336.5,251.5C 333.833,252.833 331.167,252.833 328.5,251.5C 328.666,245.158 328.5,238.825 328,232.5C 327.439,231.978 326.772,231.645 326,231.5C 324.056,232.439 322.389,233.773 321,235.5C 320.501,240.823 320.334,246.156 320.5,251.5C 318.418,252.792 314.418,252.792 308.5,251.5 Z"/></g>
<g><path style="opacity:1" fill="#2442a1" d="M 454.5,229.5 C 458.967,229.133 463.3,229.633 467.5,231C 470.62,233.408 471.953,236.574 471.5,240.5C 466.5,240.5 461.5,240.5 456.5,240.5C 456.211,244.106 456.544,247.606 457.5,251C 460.167,251.667 462.833,251.667 465.5,251C 467.667,249.5 469.5,247.667 471,245.5C 470.632,249.87 468.132,252.37 463.5,253C 451.775,254.272 446.275,249.106 447,237.5C 449.028,234.308 451.528,231.641 454.5,229.5 Z"/></g>
<g><path style="opacity:1" fill="#11399c" d="M 490.5,249.5 C 490.5,248.833 490.5,248.167 490.5,247.5C 491.468,245.393 491.802,243.059 491.5,240.5C 489.901,240.768 488.568,240.434 487.5,239.5C 488.833,239.5 490.167,239.5 491.5,239.5C 491.664,236.813 491.497,234.146 491,231.5C 488.959,230.577 486.792,230.244 484.5,230.5C 486.879,235.933 485.213,238.433 479.5,238C 476.538,234.512 477.205,231.845 481.5,230C 486.167,229.333 490.833,229.333 495.5,230C 496.416,230.374 497.25,230.874 498,231.5C 498.499,237.491 498.666,243.491 498.5,249.5C 499.873,249.343 501.207,249.51 502.5,250C 498.267,254.772 494.267,254.605 490.5,249.5 Z"/></g>
<g><path style="opacity:1" fill="#0c379b" d="M 503.5,229.5 C 507.5,229.5 511.5,229.5 515.5,229.5C 515.343,230.873 515.51,232.207 516,233.5C 520.547,229.107 525.547,228.44 531,231.5C 531.5,238.158 531.666,244.825 531.5,251.5C 528.833,252.833 526.167,252.833 523.5,251.5C 523.666,245.158 523.5,238.825 523,232.5C 519.617,231.481 517.283,232.815 516,236.5C 515.501,241.489 515.334,246.489 515.5,251.5C 512.833,252.833 510.167,252.833 507.5,251.5C 507.5,244.833 507.5,238.167 507.5,231.5C 505.517,231.843 504.183,231.176 503.5,229.5 Z"/></g>
<g><path style="opacity:1" fill="#f3f5fa" d="M 268.5,230.5 C 274.905,229.406 277.238,232.073 275.5,238.5C 272.833,238.5 270.167,238.5 267.5,238.5C 267.401,235.763 267.735,233.096 268.5,230.5 Z"/></g>
<g><path style="opacity:1" fill="#fafbfd" d="M 457.5,230.5 C 459.467,230.261 461.301,230.594 463,231.5C 463.497,233.81 463.663,236.143 463.5,238.5C 461.167,238.5 458.833,238.5 456.5,238.5C 456.279,235.721 456.612,233.054 457.5,230.5 Z"/></g>
<g><path style="opacity:1" fill="#1a3d9e" d="M 291.5,229.5 C 295.62,229.749 299.62,229.749 303.5,229.5C 304.833,231.5 304.833,233.5 303.5,235.5C 299.79,229.78 295.457,229.113 290.5,233.5C 291.09,234.799 292.09,235.632 293.5,236C 304.591,235.403 308.424,240.237 305,250.5C 300.55,253.946 295.883,254.279 291,251.5C 289.989,252.337 288.822,252.67 287.5,252.5C 287.187,249.753 287.52,247.086 288.5,244.5C 290.288,246.576 291.954,248.743 293.5,251C 296.167,251.667 298.833,251.667 301.5,251C 304.326,248.478 303.993,246.478 300.5,245C 287.877,244.901 284.877,239.734 291.5,229.5 Z"/></g>
<g><path style="opacity:1" fill="#1f3f9f" d="M 483.5,240.5 C 484.791,240.263 485.791,240.596 486.5,241.5C 485.883,241.611 485.383,241.944 485,242.5C 484.503,244.81 484.337,247.143 484.5,249.5C 486.5,249.5 488.5,249.5 490.5,249.5C 487.751,253.171 484.084,254.337 479.5,253C 474.655,246.936 475.988,242.769 483.5,240.5 Z"/></g>
<g><path style="opacity:1" fill="#798fc7" d="M 483.5,240.5 C 484.568,239.566 485.901,239.232 487.5,239.5C 488.568,240.434 489.901,240.768 491.5,240.5C 491.802,243.059 491.468,245.393 490.5,247.5C 490.5,245.5 490.5,243.5 490.5,241.5C 489.167,241.5 487.833,241.5 486.5,241.5C 485.791,240.596 484.791,240.263 483.5,240.5 Z"/></g>
<g><path style="opacity:1" fill="#f9fafc" d="M 486.5,241.5 C 487.833,241.5 489.167,241.5 490.5,241.5C 490.5,243.5 490.5,245.5 490.5,247.5C 490.5,248.167 490.5,248.833 490.5,249.5C 488.5,249.5 486.5,249.5 484.5,249.5C 484.337,247.143 484.503,244.81 485,242.5C 485.383,241.944 485.883,241.611 486.5,241.5 Z"/></g>
<g><path style="opacity:1" fill="#7abb99" d="M 142.5,248.5 C 139.249,250.957 135.582,252.624 131.5,253.5C 134.751,251.043 138.418,249.376 142.5,248.5 Z"/></g>
<g><path style="opacity:1" fill="#acbcdd" d="M 235.5,231.5 C 236.491,237.979 236.824,244.646 236.5,251.5C 238.394,252.59 242.394,252.923 248.5,252.5C 243.36,253.488 238.026,253.821 232.5,253.5C 232.5,252.5 232.5,251.5 232.5,250.5C 233.5,250.5 234.5,250.5 235.5,250.5C 235.5,244.167 235.5,237.833 235.5,231.5 Z"/></g>
<g><path style="opacity:1" fill="#61af88" d="M 131.5,253.5 C 130.4,254.558 129.066,255.392 127.5,256C 120.833,256.667 114.167,256.667 107.5,256C 115.646,255.987 123.646,255.153 131.5,253.5 Z"/></g>
<g><path style="opacity:1" fill="#467844" d="M 284.5,281.5 C 288.31,282.754 288.31,283.754 284.5,284.5C 284.5,283.5 284.5,282.5 284.5,281.5 Z"/></g>
<g><path style="opacity:1" fill="#296f3e" d="M 206.5,281.5 C 209.449,282.013 212.282,282.013 215,281.5C 216.168,287.432 215.335,288.265 212.5,284C 205.999,283.188 203.832,286.021 206,292.5C 209.763,295.582 212.597,294.915 214.5,290.5C 215.725,292.843 215.059,294.677 212.5,296C 204.428,296.577 201.261,292.743 203,284.5C 204.518,283.837 205.685,282.837 206.5,281.5 Z"/></g>
<g><path style="opacity:1" fill="#3b723f" d="M 361.5,282.5 C 362.434,283.568 362.768,284.901 362.5,286.5C 366.5,286.833 366.5,287.167 362.5,287.5C 362.192,289.924 362.526,292.257 363.5,294.5C 364.167,293.5 364.833,292.5 365.5,291.5C 367.052,295.928 365.386,297.595 360.5,296.5C 360.751,293.091 360.417,289.758 359.5,286.5C 360.853,285.476 361.52,284.143 361.5,282.5 Z"/></g>
<g><path style="opacity:1" fill="#417545" d="M 502.5,282.5 C 503.926,283.802 505.259,285.302 506.5,287C 504.363,289.179 504.029,291.679 505.5,294.5C 507.163,290.665 507.663,290.999 507,295.5C 505.333,296.833 503.667,296.833 502,295.5C 501.744,292.443 501.244,289.443 500.5,286.5C 501.853,285.476 502.52,284.143 502.5,282.5 Z"/></g>
<g><path style="opacity:1" fill="#40763e" d="M 244.5,287.5 C 245.946,286.387 247.613,286.22 249.5,287C 248.524,289.147 248.691,291.314 250,293.5C 251.595,291.575 251.762,289.575 250.5,287.5C 252.074,286.369 253.741,286.202 255.5,287C 253.098,289.703 251.765,292.87 251.5,296.5C 250.5,296.5 249.5,296.5 248.5,296.5C 248.308,292.898 246.974,289.898 244.5,287.5 Z"/></g>
<g><path style="opacity:1" fill="#316d39" d="M 274.5,287.5 C 271.899,290.337 271.899,293.17 274.5,296C 272.5,296.667 270.5,296.667 268.5,296C 271.082,292.958 271.082,289.958 268.5,287C 270.545,286.51 272.545,286.677 274.5,287.5 Z"/></g>
<g><path style="opacity:1" fill="#106839" d="M 283.5,287.5 C 284.568,286.566 285.901,286.232 287.5,286.5C 286.989,290.03 287.656,293.196 289.5,296C 287.421,296.808 285.421,296.641 283.5,295.5C 284.585,294.216 285.252,292.716 285.5,291C 285.392,289.319 284.725,288.152 283.5,287.5 Z"/></g>
<g><path style="opacity:1" fill="#7ca98c" d="M 353.5,286.5 C 353.058,287.231 352.891,288.231 353,289.5C 351.53,290.267 350.03,290.933 348.5,291.5C 346.598,286.068 348.264,284.402 353.5,286.5 Z"/></g>
<g><path style="opacity:1" fill="#2a6c3e" d="M 382.5,291.5 C 382.714,289.856 382.38,288.356 381.5,287C 383.167,286.333 384.833,286.333 386.5,287C 384.93,288.397 383.596,289.897 382.5,291.5 Z"/></g>
<g><path style="opacity:1" fill="#236d40" d="M 400.5,287.5 C 401.568,286.566 402.901,286.232 404.5,286.5C 404.5,289.167 404.5,291.833 404.5,294.5C 406.144,294.714 407.644,294.38 409,293.5C 409.495,291.527 409.662,289.527 409.5,287.5C 408.448,287.649 407.448,287.483 406.5,287C 408.134,286.506 409.801,286.34 411.5,286.5C 411.216,289.777 411.549,292.943 412.5,296C 409.269,295.61 405.935,295.776 402.5,296.5C 403.055,292.988 402.388,289.988 400.5,287.5 Z"/></g>
<g><path style="opacity:1" fill="#1e6d3f" d="M 420.5,285.5 C 421.5,285.5 422.5,285.5 423.5,285.5C 423.714,289.257 422.714,289.924 420.5,287.5C 417.866,290.252 417.866,293.085 420.5,296C 418.5,296.667 416.5,296.667 414.5,296C 417.082,292.958 417.082,289.958 414.5,287C 416.708,286.809 418.708,286.309 420.5,285.5 Z"/></g>
<g><path style="opacity:1" fill="#35764a" d="M 438.5,281.5 C 439.833,281.5 441.167,281.5 442.5,281.5C 441.974,286.412 442.641,291.078 444.5,295.5C 443.833,295.833 443.167,296.167 442.5,296.5C 439.974,296.204 437.307,296.037 434.5,296C 432.522,293.503 432.022,290.669 433,287.5C 434.733,285.398 436.733,285.065 439,286.5C 439.384,284.803 439.218,283.137 438.5,281.5 Z"/></g>
<g><path style="opacity:1" fill="#3b764e" d="M 477.5,285.5 C 480.5,285.167 481.833,286.5 481.5,289.5C 479.857,289.52 478.524,288.853 477.5,287.5C 476.005,290.645 476.338,293.478 478.5,296C 476.098,296.814 473.765,296.647 471.5,295.5C 474.113,292.582 474.113,289.749 471.5,287C 473.708,286.809 475.708,286.309 477.5,285.5 Z"/></g>
<g><path style="opacity:1" fill="#357545" d="M 525.5,287.5 C 526.659,285.623 528.326,285.123 530.5,286C 533.077,289.262 533.077,292.595 530.5,296C 528.559,296.743 526.726,296.576 525,295.5C 524.51,296.793 524.343,298.127 524.5,299.5C 528.444,300.274 528.277,300.941 524,301.5C 522.833,301.167 521.667,300.833 520.5,300.5C 521.694,298.377 522.36,296.043 522.5,293.5C 522.41,291.036 521.743,288.87 520.5,287C 522.265,286.36 523.932,286.527 525.5,287.5 Z"/></g>
<g><path style="opacity:1" fill="#1f6b3b" d="M 274.5,287.5 C 275.585,285.418 277.085,285.084 279,286.5C 279.333,289.167 279.667,291.833 280,294.5C 282.032,295.94 281.698,296.607 279,296.5C 278.167,296.333 277.333,296.167 276.5,296C 277.444,293.281 277.777,290.448 277.5,287.5C 276.5,287.5 275.5,287.5 274.5,287.5 Z"/></g>
<g><path style="opacity:1" fill="#498153" d="M 293.5,285.5 C 298.339,284.677 300.673,286.677 300.5,291.5C 298.167,291.5 295.833,291.5 293.5,291.5C 293.5,292.5 293.5,293.5 293.5,294.5C 295.821,294.771 297.821,294.104 299.5,292.5C 300.529,295.308 299.362,296.642 296,296.5C 289.734,294.185 288.9,290.519 293.5,285.5 Z"/></g>
<g><path style="opacity:1" fill="#3c7644" d="M 320.5,285.5 C 324.56,284.848 326.56,286.515 326.5,290.5C 325.5,290.5 324.5,290.5 323.5,290.5C 323.5,289.5 323.5,288.5 323.5,287.5C 319.527,288.075 318.527,290.242 320.5,294C 322.433,294.783 323.933,294.283 325,292.5C 325.667,293.5 325.667,294.5 325,295.5C 320.578,297.517 317.745,296.184 316.5,291.5C 316.67,288.674 318.003,286.674 320.5,285.5 Z"/></g>
<g><path style="opacity:1" fill="#307144" d="M 353.5,286.5 C 355.22,288.658 356.053,291.325 356,294.5C 356.333,293.833 356.667,293.167 357,292.5C 357.49,293.793 357.657,295.127 357.5,296.5C 354.269,295.819 350.936,295.652 347.5,296C 346.084,294.085 346.418,292.585 348.5,291.5C 350.03,290.933 351.53,290.267 353,289.5C 352.891,288.231 353.058,287.231 353.5,286.5 Z"/></g>
<g><path style="opacity:1" fill="#387749" d="M 491.5,285.5 C 495.126,284.861 496.959,286.194 497,289.5C 495.759,287.579 494.259,287.246 492.5,288.5C 494.113,289.427 495.779,290.261 497.5,291C 498.833,292.667 498.833,294.333 497.5,296C 494.854,296.497 492.187,296.664 489.5,296.5C 489.442,292.299 490.442,291.799 492.5,295C 493.448,295.483 494.448,295.649 495.5,295.5C 495.5,294.5 495.5,293.5 495.5,292.5C 489.616,292.337 488.282,290.004 491.5,285.5 Z"/></g>
<g><path style="opacity:1" fill="#2b6f3e" d="M 221.5,285.5 C 228.03,285.243 230.197,288.243 228,294.5C 224.87,297.122 221.703,297.122 218.5,294.5C 216.664,290.45 217.664,287.45 221.5,285.5 Z"/></g>
<g><path style="opacity:1" fill="#dfebe4" d="M 221.5,287.5 C 226.378,287.535 227.711,289.868 225.5,294.5C 223.958,295.747 222.458,295.747 221,294.5C 220.297,292.071 220.463,289.738 221.5,287.5 Z"/></g>
<g><path style="opacity:1" fill="#237147" d="M 237.5,285.5 C 238.822,285.33 239.989,285.663 241,286.5C 241.064,289.763 241.898,292.763 243.5,295.5C 241.579,296.641 239.579,296.808 237.5,296C 239.314,293.519 239.98,290.685 239.5,287.5C 238.178,287.33 237.011,287.663 236,288.5C 235.231,291.099 235.398,293.599 236.5,296C 234.421,296.808 232.421,296.641 230.5,295.5C 233.113,292.582 233.113,289.749 230.5,287C 233.036,286.814 235.369,286.314 237.5,285.5 Z"/></g>
<g><path style="opacity:1" fill="#3b7d56" d="M 260.5,285.5 C 264.693,285.362 267.027,287.362 267.5,291.5C 265.167,291.5 262.833,291.5 260.5,291.5C 260.5,292.5 260.5,293.5 260.5,294.5C 262.766,294.859 264.599,294.192 266,292.5C 266.86,295.478 265.693,296.812 262.5,296.5C 260.626,296.61 259.126,295.944 258,294.5C 256.779,290.718 257.613,287.718 260.5,285.5 Z"/></g>
<g><path style="opacity:1" fill="#237147" d="M 309.5,285.5 C 310.822,285.33 311.989,285.663 313,286.5C 313.064,289.763 313.898,292.763 315.5,295.5C 313.579,296.641 311.579,296.808 309.5,296C 311.314,293.519 311.98,290.685 311.5,287.5C 310.178,287.33 309.011,287.663 308,288.5C 307.231,291.099 307.398,293.599 308.5,296C 306.421,296.808 304.421,296.641 302.5,295.5C 305.113,292.582 305.113,289.749 302.5,287C 305.036,286.814 307.369,286.314 309.5,285.5 Z"/></g>
<g><path style="opacity:1" fill="#3b7d56" d="M 331.5,285.5 C 335.693,285.362 338.027,287.362 338.5,291.5C 336.167,291.5 333.833,291.5 331.5,291.5C 331.5,292.5 331.5,293.5 331.5,294.5C 333.766,294.859 335.599,294.192 337,292.5C 337.86,295.478 336.693,296.812 333.5,296.5C 331.626,296.61 330.126,295.944 329,294.5C 327.779,290.718 328.613,287.718 331.5,285.5 Z"/></g>
<g><path style="opacity:1" fill="#2d7248" d="M 390.5,285.5 C 398.302,285.787 400.302,289.287 396.5,296C 393.77,296.728 391.103,296.562 388.5,295.5C 386.973,291.622 387.64,288.289 390.5,285.5 Z"/></g>
<g><path style="opacity:1" fill="#e6ede2" d="M 391.5,287.5 C 396.068,287.083 397.568,289.083 396,293.5C 394.604,295.527 392.938,295.86 391,294.5C 390.297,292.071 390.463,289.738 391.5,287.5 Z"/></g>
<g><path style="opacity:1" fill="#ecf0e3" d="M 436.5,287.5 C 440.264,288.385 441.264,290.552 439.5,294C 438.207,294.49 436.873,294.657 435.5,294.5C 435.298,292.05 435.631,289.717 436.5,287.5 Z"/></g>
<g><path style="opacity:1" fill="#2b6f3e" d="M 449.5,285.5 C 456.03,285.243 458.197,288.243 456,294.5C 452.87,297.122 449.703,297.122 446.5,294.5C 444.664,290.45 445.664,287.45 449.5,285.5 Z"/></g>
<g><path style="opacity:1" fill="#dfebe4" d="M 449.5,287.5 C 454.378,287.535 455.711,289.868 453.5,294.5C 451.958,295.747 450.458,295.747 449,294.5C 448.297,292.071 448.463,289.738 449.5,287.5 Z"/></g>
<g><path style="opacity:1" fill="#2b6f3e" d="M 462.5,285.5 C 469.03,285.243 471.197,288.243 469,294.5C 465.87,297.122 462.703,297.122 459.5,294.5C 457.664,290.45 458.664,287.45 462.5,285.5 Z"/></g>
<g><path style="opacity:1" fill="#dfebe4" d="M 462.5,287.5 C 467.378,287.535 468.711,289.868 466.5,294.5C 464.958,295.747 463.458,295.747 462,294.5C 461.297,292.071 461.463,289.738 462.5,287.5 Z"/></g>
<g><path style="opacity:1" fill="#3b7d56" d="M 512.5,285.5 C 516.693,285.362 519.027,287.362 519.5,291.5C 517.167,291.5 514.833,291.5 512.5,291.5C 512.5,292.5 512.5,293.5 512.5,294.5C 514.766,294.859 516.599,294.192 518,292.5C 518.86,295.478 517.693,296.812 514.5,296.5C 512.626,296.61 511.126,295.944 510,294.5C 508.779,290.718 509.613,287.718 512.5,285.5 Z"/></g>
<g><path style="opacity:1" fill="#e3f0ee" d="M 525.5,287.5 C 526.822,287.33 527.989,287.663 529,288.5C 529.495,290.473 529.662,292.473 529.5,294.5C 524.59,294.424 523.257,292.09 525.5,287.5 Z"/></g>
<g><path style="opacity:1" fill="#d8f1ef" d="M 350.5,291.5 C 352.048,291.821 352.715,292.821 352.5,294.5C 349.752,294.598 349.086,293.598 350.5,291.5 Z"/></g>
<g><path style="opacity:1" fill="#307246" d="M 382.5,291.5 C 381.848,294.968 380.515,298.135 378.5,301C 375.07,301.638 373.737,300.138 374.5,296.5C 375.5,296.5 376.5,296.5 377.5,296.5C 377.351,297.552 377.517,298.552 378,299.5C 379.44,298.07 379.774,296.403 379,294.5C 378.152,291.62 376.652,289.12 374.5,287C 376.5,286.333 378.5,286.333 380.5,287C 378.344,288.694 378.511,290.527 381,292.5C 381.383,291.944 381.883,291.611 382.5,291.5 Z"/></g>
<g><path style="opacity:1" fill="#467745" d="M 189.5,293.5 C 193.31,294.754 193.31,295.754 189.5,296.5C 189.5,295.5 189.5,294.5 189.5,293.5 Z"/></g>
<g><path style="opacity:1" fill="#467745" d="M 196.5,293.5 C 200.31,294.754 200.31,295.754 196.5,296.5C 196.5,295.5 196.5,294.5 196.5,293.5 Z"/></g>
<g><path style="opacity:1" fill="#467745" d="M 535.5,293.5 C 539.31,294.754 539.31,295.754 535.5,296.5C 535.5,295.5 535.5,294.5 535.5,293.5 Z"/></g>
</svg>
