<svg width="31" height="31" viewBox="0 0 31 31" fill="none" xmlns="http://www.w3.org/2000/svg">
<path d="M24.5236 8.92533C24.5927 5.33127 21.6271 2.57227 17.5493 2.57227H9.11599C8.91941 2.57233 8.7293 2.64255 8.57989 2.7703C8.43047 2.89805 8.33156 3.07494 8.30095 3.26912L4.9213 24.3853C4.90618 24.481 4.91198 24.5788 4.93829 24.672C4.96461 24.7652 5.01081 24.8517 5.07373 24.9253C5.13664 24.999 5.21477 25.0581 5.30273 25.0987C5.3907 25.1392 5.48641 25.1603 5.58328 25.1603H10.5801L9.79863 30.0505C9.78351 30.1463 9.78932 30.2441 9.81567 30.3374C9.84202 30.4307 9.88828 30.5171 9.95127 30.5908C10.0143 30.6645 10.0925 30.7236 10.1805 30.7641C10.2686 30.8047 10.3643 30.8256 10.4613 30.8255H14.5313C14.7283 30.8255 14.9033 30.7545 15.0525 30.6273C15.2017 30.4994 15.2262 30.3231 15.2566 30.1287L16.4514 23.0988C16.4817 22.905 16.5805 22.6532 16.7304 22.5253C16.8796 22.3974 17.01 22.3277 17.2063 22.327H19.698C23.6912 22.327 27.0798 19.4892 27.6992 15.5412C28.1371 12.7383 26.9352 10.1892 24.5236 8.92533Z" fill="#001C64"/>
<path d="M11.6611 17.373L10.4166 25.2651L9.63517 30.2148C9.62004 30.3105 9.62585 30.4084 9.6522 30.5017C9.67856 30.5949 9.72482 30.6814 9.7878 30.7551C9.85079 30.8287 9.929 30.8879 10.017 30.9284C10.1051 30.9689 10.2009 30.9899 10.2978 30.9898H14.6055C14.802 30.9896 14.9919 30.9193 15.1412 30.7915C15.2905 30.6638 15.3893 30.487 15.4199 30.2929L16.5553 23.0983C16.5859 22.9043 16.6847 22.7276 16.834 22.6C16.9833 22.4724 17.1733 22.4022 17.3697 22.4021H19.9059C23.899 22.4021 27.2871 19.4894 27.9064 15.5415C28.3456 12.7392 26.9351 10.1901 24.5236 8.92554C24.5171 9.22391 24.4913 9.52164 24.4454 9.81679C23.8261 13.7641 20.4374 16.6775 16.4442 16.6775H12.4755C12.2792 16.6775 12.0894 16.7476 11.9401 16.8751C11.7908 17.0026 11.6919 17.1791 11.6611 17.373Z" fill="#0070E0"/>
<path d="M10.4163 25.265H5.40468C5.30778 25.2651 5.21201 25.2442 5.12399 25.2036C5.03597 25.1631 4.9578 25.104 4.89486 25.0303C4.83192 24.9566 4.78573 24.8701 4.75946 24.7769C4.73319 24.6836 4.72747 24.5857 4.7427 24.49L8.1217 3.05998C8.15233 2.86586 8.25126 2.68905 8.40069 2.56141C8.55012 2.43376 8.74022 2.36368 8.93674 2.36377H17.5502C21.6274 2.36377 24.593 5.33137 24.5239 8.92544C23.5093 8.39327 22.3171 8.08908 21.0106 8.08908H13.8296C13.6332 8.08927 13.4433 8.15948 13.2941 8.28708C13.1448 8.41469 13.0459 8.59133 13.0152 8.78529L11.6622 17.3729L10.4163 25.265Z" fill="#003087"/>
</svg>
