<svg width="68" height="23" viewBox="0 0 68 23" fill="none" xmlns="http://www.w3.org/2000/svg">
<path d="M44.305 0.5C39.483 0.5 35.1536 3.01059 35.1536 7.61765C35.1536 12.9235 42.8014 13.2859 42.8014 15.9259C42.8014 17.0388 41.5051 18.0482 39.3275 18.0482C36.2165 18.0482 33.8833 16.6506 33.8833 16.6506L32.8982 21.3094C32.8982 21.3094 35.5684 22.5 39.146 22.5C44.4346 22.5 48.5825 19.8859 48.5825 15.1753C48.5825 9.58471 40.9089 9.22235 40.9089 6.76353C40.9089 5.88353 41.9718 4.92588 44.1495 4.92588C46.6123 4.92588 48.6344 5.93529 48.6344 5.93529L49.6195 1.43176C49.5936 1.43176 47.39 0.5 44.305 0.5ZM0.129623 0.836471L0 1.50941C0 1.50941 2.02211 1.87176 3.86275 2.62235C6.22188 3.47647 6.37743 3.96824 6.79222 5.49529L11.1216 22.1376H16.9287L25.8208 0.836471H20.0397L14.3103 15.3306L11.9771 3.03647C11.7697 1.63882 10.6809 0.836471 9.33283 0.836471H0.129623ZM28.154 0.836471L23.6172 22.1376H29.1392L33.65 0.836471H28.154ZM58.9005 0.836471C57.5784 0.836471 56.8784 1.53529 56.3599 2.77765L48.2714 22.1376H54.0526L55.1674 18.9024H62.2188L62.8929 22.1376H68L63.5669 0.836471H58.9005ZM59.6523 6.60824L61.3633 14.6059H56.7747L59.6523 6.60824Z" fill="#1434CB"/>
</svg>
