<svg width="51" height="32" viewBox="0 0 51 32" fill="none" xmlns="http://www.w3.org/2000/svg">
<g clip-path="url(#clip0_2080_14282)">
<path d="M32.2595 3.81543H18.7402V28.1849H32.2595V3.81543Z" fill="#FF5F00"/>
<path d="M19.5984 15.9997C19.5984 11.2636 21.7872 6.74273 25.4782 3.81496C18.7829 -1.48088 9.08336 -0.318378 3.80439 6.44134C-1.47458 13.158 -0.315784 22.8886 6.42241 28.1844C12.0447 32.6191 19.8988 32.6191 25.5211 28.1844C21.7872 25.2566 19.5984 20.7358 19.5984 15.9997Z" fill="#EB001B"/>
<path d="M50.5 15.9997C50.5 24.5677 43.5902 31.4997 35.0494 31.4997C31.573 31.4997 28.2253 30.3372 25.5215 28.1844C32.2168 22.8886 33.3756 13.158 28.0966 6.39829C27.3241 5.45107 26.4657 4.5469 25.5215 3.81496C32.2168 -1.48088 41.9593 -0.318378 47.1953 6.44134C49.3412 9.15384 50.5 12.5122 50.5 15.9997Z" fill="#F79E1B"/>
<path d="M49.0407 25.6008V25.0842H49.2553V24.998H48.7402V25.0842H48.9548V25.6008H49.0407ZM50.0278 25.6008V24.998H49.8561L49.6844 25.4286L49.5128 24.998H49.3411V25.6008H49.4698V25.1272L49.6415 25.5147H49.7703L49.9419 25.1272V25.6008H50.0278Z" fill="#F79E1B"/>
</g>
<defs>
<clipPath id="clip0_2080_14282">
<rect width="50" height="31" fill="white" transform="translate(0.5 0.5)"/>
</clipPath>
</defs>
</svg>
