<svg width="32" height="32" viewBox="0 0 32 32" fill="none" xmlns="http://www.w3.org/2000/svg">
<g clip-path="url(#clip0_2080_14303)">
<path d="M25.0236 9.42533C25.0927 5.83127 22.1271 3.07227 18.0493 3.07227H9.61599C9.41941 3.07233 9.2293 3.14255 9.07989 3.2703C8.93047 3.39805 8.83156 3.57494 8.80095 3.76912L5.4213 24.8853C5.40618 24.981 5.41198 25.0788 5.43829 25.172C5.46461 25.2652 5.51081 25.3517 5.57373 25.4253C5.63664 25.499 5.71477 25.5581 5.80273 25.5987C5.8907 25.6392 5.98641 25.6603 6.08328 25.6603H11.0801L10.2986 30.5505C10.2835 30.6463 10.2893 30.7441 10.3157 30.8374C10.342 30.9307 10.3883 31.0171 10.4513 31.0908C10.5143 31.1645 10.5925 31.2236 10.6805 31.2641C10.7686 31.3047 10.8643 31.3256 10.9613 31.3255H15.0313C15.2283 31.3255 15.4033 31.2545 15.5525 31.1273C15.7017 30.9994 15.7262 30.8231 15.7566 30.6287L16.9514 23.5988C16.9817 23.405 17.0805 23.1532 17.2304 23.0253C17.3796 22.8974 17.51 22.8277 17.7063 22.827H20.198C24.1912 22.827 27.5798 19.9892 28.1992 16.0412C28.6371 13.2383 27.4352 10.6892 25.0236 9.42533Z" fill="#001C64"/>
<path d="M12.1611 17.8733L10.9166 25.7654L10.1352 30.715C10.12 30.8108 10.1259 30.9086 10.1522 31.0019C10.1786 31.0952 10.2248 31.1816 10.2878 31.2553C10.3508 31.329 10.429 31.3881 10.517 31.4286C10.6051 31.4691 10.7009 31.4901 10.7978 31.49H15.1055C15.302 31.4898 15.4919 31.4195 15.6412 31.2918C15.7905 31.164 15.8893 30.9873 15.9199 30.7932L17.0553 23.5986C17.0859 23.4046 17.1847 23.2279 17.334 23.1002C17.4833 22.9726 17.6733 22.9024 17.8697 22.9024H20.4059C24.399 22.9024 27.7871 19.9897 28.4064 16.0417C28.8456 13.2394 27.4351 10.6903 25.0236 9.42578C25.0171 9.72416 24.9913 10.0219 24.9454 10.317C24.3261 14.2644 20.9374 17.1777 16.9442 17.1777H12.9755C12.7792 17.1778 12.5894 17.2478 12.4401 17.3753C12.2908 17.5028 12.1919 17.6794 12.1611 17.8733Z" fill="#0070E0"/>
<path d="M10.9163 25.7645H5.90468C5.80778 25.7646 5.71201 25.7437 5.62399 25.7031C5.53597 25.6626 5.4578 25.6035 5.39486 25.5298C5.33192 25.4561 5.28573 25.3696 5.25946 25.2764C5.23319 25.1831 5.22747 25.0852 5.2427 24.9895L8.6217 3.55949C8.65233 3.36537 8.75126 3.18856 8.90069 3.06092C9.05012 2.93328 9.24022 2.86319 9.43674 2.86328H18.0502C22.1274 2.86328 25.093 5.83089 25.0239 9.42495C24.0093 8.89278 22.8171 8.58859 21.5106 8.58859H14.3296C14.1332 8.58879 13.9433 8.65899 13.7941 8.7866C13.6448 8.9142 13.5459 9.09084 13.5152 9.2848L12.1622 17.8724L10.9163 25.7645Z" fill="#003087"/>
</g>
<defs>
<clipPath id="clip0_2080_14303">
<rect width="31" height="31" fill="white" transform="translate(0.5 0.5)"/>
</clipPath>
</defs>
</svg>
