<svg width="69" height="22" viewBox="0 0 69 22" fill="none" xmlns="http://www.w3.org/2000/svg">
<g clip-path="url(#clip0_2080_14295)">
<path d="M44.805 0C39.983 0 35.6536 2.51059 35.6536 7.11765C35.6536 12.4235 43.3014 12.7859 43.3014 15.4259C43.3014 16.5388 42.0051 17.5482 39.8275 17.5482C36.7165 17.5482 34.3833 16.1506 34.3833 16.1506L33.3982 20.8094C33.3982 20.8094 36.0684 22 39.646 22C44.9346 22 49.0825 19.3859 49.0825 14.6753C49.0825 9.08471 41.4089 8.72235 41.4089 6.26353C41.4089 5.38353 42.4718 4.42588 44.6495 4.42588C47.1123 4.42588 49.1344 5.43529 49.1344 5.43529L50.1195 0.931765C50.0936 0.931765 47.89 0 44.805 0ZM0.629623 0.336471L0.5 1.00941C0.5 1.00941 2.52211 1.37176 4.36275 2.12235C6.72188 2.97647 6.87743 3.46824 7.29222 4.99529L11.6216 21.6376H17.4287L26.3208 0.336471H20.5397L14.8103 14.8306L12.4771 2.53647C12.2697 1.13882 11.1809 0.336471 9.83283 0.336471H0.629623ZM28.654 0.336471L24.1172 21.6376H29.6392L34.15 0.336471H28.654ZM59.4005 0.336471C58.0784 0.336471 57.3784 1.03529 56.8599 2.27765L48.7714 21.6376H54.5526L55.6674 18.4024H62.7188L63.3929 21.6376H68.5L64.0669 0.336471H59.4005ZM60.1523 6.10824L61.8633 14.1059H57.2747L60.1523 6.10824Z" fill="#1434CB"/>
</g>
<defs>
<clipPath id="clip0_2080_14295">
<rect width="68" height="22" fill="white" transform="translate(0.5)"/>
</clipPath>
</defs>
</svg>
