<svg width="102" height="102" viewBox="0 0 102 102" fill="none" xmlns="http://www.w3.org/2000/svg">
<rect width="102" height="102" rx="51" fill="#3DA5EC"/>
<path d="M67 45C65.4096 37.0291 58.0256 31 49.1586 31C39.131 31 31 38.7104 31 48.22C31 52.7892 32.8764 56.9408 35.9371 60.0216C36.611 60.7 37.0609 61.6268 36.8793 62.5806C36.5796 64.1402 35.9005 65.595 34.9061 66.8074C37.5225 67.2898 40.2429 66.8554 42.576 65.6254C43.4008 65.1908 43.8131 64.9734 44.1041 64.9292C44.3078 64.8984 44.5732 64.9272 45 65.0004" stroke="white" stroke-width="2.5" stroke-linecap="round" stroke-linejoin="round"/>
<path d="M49 59.5234C49 65.3348 53.9256 70.0468 60 70.0468C60.7142 70.0476 61.4264 69.9816 62.128 69.85C62.633 69.755 62.8856 69.7076 63.0618 69.7346C63.238 69.7614 63.488 69.8944 63.9876 70.16C65.4008 70.9116 67.0488 71.177 68.6338 70.8822C68.0314 70.1414 67.62 69.2524 67.4384 68.2992C67.3284 67.7164 67.601 67.15 68.0092 66.7354C69.8634 64.8526 71 62.3156 71 59.5234C71 53.712 66.0744 49 60 49C53.9256 49 49 53.712 49 59.5234Z" stroke="white" stroke-width="2.5" stroke-linejoin="round"/>
</svg>
