<svg width="17" height="16" viewBox="0 0 17 16" fill="none" xmlns="http://www.w3.org/2000/svg">
<g clip-path="url(#clip0_2002_14843)">
<path d="M16.0595 1.52311C15.9329 1.39699 15.7615 1.32617 15.5828 1.32617C15.4042 1.32617 15.2328 1.39699 15.1062 1.52311L11.9302 4.6991L11.7168 4.49044C11.1544 3.94107 10.4161 3.60783 9.63206 3.54941C8.84801 3.491 8.06849 3.71116 7.43084 4.1711C6.51054 4.8651 5.48756 5.41123 4.39884 5.78977L3.01618 6.1951C2.56688 6.32699 2.15013 6.55141 1.79272 6.85394C1.43531 7.15647 1.14514 7.53042 0.940845 7.95177C0.739916 8.36739 0.628004 8.82041 0.612276 9.28179C0.596549 9.74317 0.677352 10.2027 0.849512 10.6311C1.50203 12.2329 2.62065 13.6019 4.06039 14.5604C5.50013 15.519 7.1946 16.023 8.92418 16.0071H9.54018C9.67801 16.007 9.81249 15.9646 9.92551 15.8858C11.099 15.1198 12.1019 14.12 12.8716 12.949C13.6412 11.778 14.1612 10.4608 14.3988 9.07976C14.4815 8.55169 14.4367 8.01151 14.2682 7.50426C14.0997 6.99702 13.8124 6.53741 13.4302 6.16377L12.8968 5.6411L16.0615 2.47644C16.1874 2.3496 16.2578 2.17805 16.2574 1.99936C16.2571 1.82068 16.1859 1.64942 16.0595 1.52311ZM9.32151 14.6564H8.92151C7.93647 14.6578 6.96072 14.4659 6.04951 14.0918L6.05685 14.0878C7.22278 13.5027 8.2209 12.631 8.95751 11.5544L9.30284 11.0471C9.40345 10.8995 9.44129 10.7179 9.40803 10.5424C9.37477 10.3668 9.27315 10.2117 9.12551 10.1111C8.97787 10.0105 8.79632 9.97265 8.62078 10.0059C8.44525 10.0392 8.29012 10.1408 8.18951 10.2884L7.84418 10.7958C7.23565 11.6835 6.41168 12.4022 5.44951 12.8844L4.61551 13.3044C3.94826 12.8354 3.3659 12.256 2.89351 11.5911C3.98616 11.2235 4.98304 10.6168 5.81151 9.8151C5.93935 9.69009 6.01229 9.51942 6.01429 9.34064C6.01629 9.16185 5.94718 8.9896 5.82218 8.86176C5.69717 8.73393 5.5265 8.66099 5.34772 8.65899C5.16894 8.65699 4.99668 8.72609 4.86884 8.8511C4.12277 9.574 3.2122 10.1048 2.21551 10.3978C2.17484 10.3078 2.13084 10.2198 2.09418 10.1271C1.99093 9.87353 1.94259 9.60096 1.95236 9.32736C1.96213 9.05375 2.02978 8.78532 2.15084 8.53976C2.27341 8.28763 2.44724 8.06383 2.66121 7.88269C2.87519 7.70155 3.1246 7.56704 3.39351 7.48777L4.77551 7.08243C5.57748 6.8248 6.34461 6.46923 7.05951 6.02377L12.3362 11.1651C11.6351 12.5607 10.5994 13.7611 9.32151 14.6591V14.6564ZM13.0682 8.86776C13.0172 9.17966 12.9484 9.48839 12.8622 9.79243L8.21484 5.26644C8.55578 5.02139 8.96498 4.88942 9.38484 4.8891C9.90423 4.88844 10.4031 5.09169 10.7742 5.4551L12.4868 7.12777C12.7155 7.35097 12.8875 7.62556 12.9886 7.92867C13.0898 8.23178 13.117 8.55465 13.0682 8.87043V8.86776Z" fill="#ADADAD"/>
</g>
<defs>
<clipPath id="clip0_2002_14843">
<rect width="16" height="16" fill="white" transform="translate(0.25)"/>
</clipPath>
</defs>
</svg>
