<svg width="17" height="16" viewBox="0 0 17 16" fill="none" xmlns="http://www.w3.org/2000/svg">
<path d="M14.5993 12C15.0989 12 15.4962 11.6857 15.853 11.2461C16.5833 10.3463 15.3842 9.6272 14.9269 9.27507C14.462 8.91707 13.9429 8.71427 13.4167 8.66667M12.75 7.33333C13.6705 7.33333 14.4167 6.58714 14.4167 5.66667C14.4167 4.74619 13.6705 4 12.75 4" stroke="#ADADAD" stroke-linecap="round"/>
<path d="M2.90096 12C2.40143 12 2.0041 11.6857 1.64736 11.2461C0.91705 10.3463 2.1161 9.6272 2.57342 9.27507C3.0383 8.91707 3.55738 8.71427 4.08366 8.66667M4.41699 7.33333C3.49652 7.33333 2.75032 6.58714 2.75032 5.66667C2.75032 4.74619 3.49652 4 4.41699 4" stroke="#ADADAD" stroke-linecap="round"/>
<path d="M6.13952 10.0748C5.45834 10.496 3.67232 11.3561 4.76012 12.4323C5.29151 12.958 5.88334 13.334 6.62741 13.334H10.8733C11.6173 13.334 12.2091 12.958 12.7405 12.4323C13.8283 11.3561 12.0423 10.496 11.3611 10.0748C9.76372 9.08705 7.73692 9.08705 6.13952 10.0748Z" stroke="#ADADAD" stroke-linecap="round" stroke-linejoin="round"/>
<path d="M11.0837 4.99935C11.0837 6.28802 10.039 7.33268 8.75033 7.33268C7.46166 7.33268 6.41699 6.28802 6.41699 4.99935C6.41699 3.71068 7.46166 2.66602 8.75033 2.66602C10.039 2.66602 11.0837 3.71068 11.0837 4.99935Z" stroke="#ADADAD"/>
</svg>
