<svg width="16" height="16" viewBox="0 0 16 16" fill="none" xmlns="http://www.w3.org/2000/svg">
<path d="M12.8663 5.28097V8.71431C12.8663 10.7676 11.693 11.6476 9.93298 11.6476H4.07298C3.77298 11.6476 3.48631 11.621 3.21965 11.561C3.05298 11.5343 2.89298 11.4877 2.74632 11.4343C1.74632 11.061 1.13965 10.1943 1.13965 8.71431V5.28097C1.13965 3.22763 2.31298 2.34766 4.07298 2.34766H9.93298C11.4263 2.34766 12.4996 2.98099 12.7863 4.42765C12.833 4.69432 12.8663 4.96763 12.8663 5.28097Z" stroke="white" stroke-width="1.5" stroke-miterlimit="10" stroke-linecap="round" stroke-linejoin="round"/>
<path d="M14.8674 7.28105V10.7144C14.8674 12.7677 13.694 13.6477 11.934 13.6477H6.07404C5.5807 13.6477 5.13404 13.5811 4.74738 13.4344C3.95404 13.1411 3.41404 12.5344 3.2207 11.5611C3.48737 11.6211 3.77404 11.6477 4.07404 11.6477H9.93404C11.694 11.6477 12.8674 10.7677 12.8674 8.7144V5.28105C12.8674 4.96771 12.8407 4.68773 12.7874 4.42773C14.054 4.6944 14.8674 5.58771 14.8674 7.28105Z" stroke="white" stroke-width="1.5" stroke-miterlimit="10" stroke-linecap="round" stroke-linejoin="round"/>
<path d="M6.99829 8.76025C7.97031 8.76025 8.7583 7.97227 8.7583 7.00024C8.7583 6.02822 7.97031 5.24023 6.99829 5.24023C6.02627 5.24023 5.23828 6.02822 5.23828 7.00024C5.23828 7.97227 6.02627 8.76025 6.99829 8.76025Z" stroke="white" stroke-width="1.5" stroke-miterlimit="10" stroke-linecap="round" stroke-linejoin="round"/>
<path d="M3.18652 5.53516V8.46851" stroke="white" stroke-width="1.5" stroke-miterlimit="10" stroke-linecap="round" stroke-linejoin="round"/>
<path d="M10.8145 5.53516V8.46851" stroke="white" stroke-width="1.5" stroke-miterlimit="10" stroke-linecap="round" stroke-linejoin="round"/>
</svg>
