<svg width="17" height="16" viewBox="0 0 17 16" fill="none" xmlns="http://www.w3.org/2000/svg">
<path d="M3.5 6.66732C3.5 4.15316 3.5 2.89608 4.28105 2.11503C5.0621 1.33398 6.31917 1.33398 8.83333 1.33398H9.83333C12.3475 1.33398 13.6046 1.33398 14.3856 2.11503C15.1667 2.89608 15.1667 4.15316 15.1667 6.66732V9.33398C15.1667 11.8481 15.1667 13.1053 14.3856 13.8863C13.6046 14.6673 12.3475 14.6673 9.83333 14.6673H8.83333C6.31917 14.6673 5.0621 14.6673 4.28105 13.8863C3.5 13.1053 3.5 11.8481 3.5 9.33398V6.66732Z" stroke="white"/>
<path d="M10.6667 6.66615V8.33282C10.6667 8.88508 11.1144 9.33282 11.6667 9.33282C12.2189 9.33282 12.6667 8.88508 12.6667 8.33282V7.99935C12.6667 6.1584 11.1743 4.66602 9.33333 4.66602C7.4924 4.66602 6 6.1584 6 7.99935C6 9.84028 7.4924 11.3327 9.33333 11.3327C10.0839 11.3327 10.7765 11.0846 11.3337 10.666M10.6667 7.99948C10.6667 8.73588 10.0697 9.33282 9.33333 9.33282C8.59693 9.33282 8 8.73588 8 7.99948C8 7.26308 8.59693 6.66615 9.33333 6.66615C10.0697 6.66615 10.6667 7.26308 10.6667 7.99948Z" stroke="white" stroke-linecap="round"/>
<path d="M3.49967 4H1.83301M3.49967 8H1.83301M3.49967 12H1.83301" stroke="white" stroke-linecap="round" stroke-linejoin="round"/>
</svg>
